<svg width="212" height="128" viewBox="0 0 212 128" fill="none" xmlns="http://www.w3.org/2000/svg">
<path d="M128.929 127.733C83.0497 127.733 45.8574 125.561 45.8574 122.882C45.8574 120.204 83.0497 118.033 128.929 118.033C174.808 118.033 212 120.204 212 122.882C212 125.561 174.808 127.733 128.929 127.733Z" fill="#F5F5F5"/>
<path d="M180.145 110.068C182.716 111.64 207.424 122.882 184.575 122.882H153.264C153.264 122.882 163.294 121.207 159.224 118.028C172.861 109.425 180.145 110.068 180.145 110.068Z" fill="#704C06"/>
<path opacity="0.6" d="M180.145 110.068C182.716 111.64 207.424 122.882 184.575 122.882H153.264C153.264 122.882 163.294 121.207 159.224 118.028C172.861 109.425 180.145 110.068 180.145 110.068Z" fill="white"/>
<path d="M98.8947 55.171C98.9331 55.1411 98.8564 55.1923 98.8947 55.171V55.171Z" fill="white"/>
<path d="M178.718 123.924H178.748C184.13 123.568 186.927 122.368 187.317 120.26C188.003 116.34 179.464 111.263 176.983 110.179C176.931 110.157 176.876 110.144 176.819 110.143C176.763 110.142 176.707 110.153 176.654 110.173C176.602 110.194 176.554 110.225 176.513 110.264C176.473 110.303 176.44 110.35 176.418 110.402C176.395 110.454 176.383 110.509 176.382 110.566C176.381 110.622 176.391 110.678 176.412 110.731C176.432 110.783 176.463 110.831 176.503 110.872C176.542 110.912 176.589 110.945 176.64 110.967C179.815 112.36 186.992 117.15 186.495 120.11C186.212 121.73 183.525 122.75 178.731 123.071C178.617 123.075 178.51 123.124 178.433 123.207C178.355 123.29 178.314 123.401 178.318 123.514C178.322 123.628 178.371 123.735 178.454 123.813C178.537 123.89 178.647 123.932 178.761 123.928L178.718 123.924Z" fill="#704C06"/>
<path opacity="0.8" d="M178.718 123.924H178.748C184.13 123.568 186.927 122.368 187.317 120.26C188.003 116.34 179.464 111.263 176.983 110.179C176.931 110.157 176.876 110.144 176.819 110.143C176.763 110.142 176.707 110.153 176.654 110.173C176.602 110.194 176.554 110.225 176.513 110.264C176.473 110.303 176.44 110.35 176.418 110.402C176.395 110.454 176.383 110.509 176.382 110.566C176.381 110.622 176.391 110.678 176.412 110.731C176.432 110.783 176.463 110.831 176.503 110.872C176.542 110.912 176.589 110.945 176.64 110.967C179.815 112.36 186.992 117.15 186.495 120.11C186.212 121.73 183.525 122.75 178.731 123.071C178.617 123.075 178.51 123.124 178.433 123.207C178.355 123.29 178.314 123.401 178.318 123.514C178.322 123.628 178.371 123.735 178.454 123.813C178.537 123.89 178.647 123.932 178.761 123.928L178.718 123.924Z" fill="white"/>
<path d="M159.939 123.924C168.791 123.791 170.651 121.289 170.625 119.211C170.625 116.259 166.546 113.08 163.697 113.067C163.583 113.067 163.474 113.112 163.394 113.192C163.314 113.273 163.268 113.382 163.268 113.495C163.268 113.609 163.314 113.718 163.394 113.798C163.474 113.879 163.583 113.924 163.697 113.924C166.083 113.924 169.759 116.773 169.772 119.219C169.772 121.571 166.199 122.972 159.918 123.075C159.804 123.075 159.695 123.12 159.615 123.201C159.535 123.281 159.49 123.39 159.49 123.504C159.49 123.617 159.535 123.726 159.615 123.807C159.695 123.887 159.804 123.932 159.918 123.932L159.939 123.924Z" fill="#704C06"/>
<path opacity="0.8" d="M159.939 123.924C168.791 123.791 170.651 121.289 170.625 119.211C170.625 116.259 166.546 113.08 163.697 113.067C163.583 113.067 163.474 113.112 163.394 113.192C163.314 113.273 163.268 113.382 163.268 113.495C163.268 113.609 163.314 113.718 163.394 113.798C163.474 113.879 163.583 113.924 163.697 113.924C166.083 113.924 169.759 116.773 169.772 119.219C169.772 121.571 166.199 122.972 159.918 123.075C159.804 123.075 159.695 123.12 159.615 123.201C159.535 123.281 159.49 123.39 159.49 123.504C159.49 123.617 159.535 123.726 159.615 123.807C159.695 123.887 159.804 123.932 159.918 123.932L159.939 123.924Z" fill="white"/>
<path d="M157.339 115.65L157.93 118.872C157.949 118.969 157.988 119.06 158.046 119.139C158.103 119.219 158.177 119.285 158.263 119.332C158.349 119.38 158.444 119.409 158.542 119.416C158.64 119.423 158.738 119.408 158.83 119.374L181.362 110.697C181.453 110.662 181.536 110.608 181.604 110.537C181.672 110.466 181.723 110.381 181.754 110.288C181.785 110.195 181.796 110.096 181.784 109.999C181.772 109.902 181.739 109.808 181.687 109.725L179.974 106.936C179.767 106.601 179.449 106.348 179.076 106.223C178.702 106.098 178.297 106.107 177.93 106.25L158.393 113.782C158.028 113.923 157.723 114.187 157.531 114.527C157.339 114.868 157.271 115.265 157.339 115.65Z" fill="#704C06"/>
<path d="M106.478 10.3084L112.219 19.4814C112.33 19.6563 112.504 19.7804 112.706 19.827C112.907 19.8735 113.119 19.8386 113.295 19.7299C113.469 19.6205 113.593 19.4463 113.64 19.2456C113.686 19.045 113.652 18.834 113.543 18.6588L107.811 9.48582C107.701 9.3113 107.527 9.18721 107.326 9.14065C107.126 9.09408 106.915 9.12884 106.739 9.23732C106.563 9.34473 106.436 9.51791 106.387 9.71877C106.338 9.91963 106.371 10.1317 106.478 10.3084Z" fill="#704C06"/>
<path d="M100.133 0.158562C100.248 0.0860555 100.377 0.0370639 100.512 0.0144026C100.646 -0.00825867 100.784 -0.00414386 100.917 0.0265036C101.05 0.0571511 101.175 0.11373 101.286 0.193002C101.397 0.272275 101.492 0.372684 101.564 0.488467L168.153 107.056L170.038 106.327C170.638 106.096 171.379 106.37 171.983 107.043L173.345 108.564L163.346 112.42V110.376C163.346 109.476 163.71 108.774 164.31 108.542L166.19 107.818L99.7942 1.58957C99.6497 1.35483 99.6042 1.07236 99.6676 0.804094C99.7311 0.535833 99.8983 0.303684 100.133 0.158562Z" fill="#704C06"/>
<path opacity="0.3" d="M100.133 0.158562C100.248 0.0860555 100.377 0.0370639 100.512 0.0144026C100.646 -0.00825867 100.784 -0.00414386 100.917 0.0265036C101.05 0.0571511 101.175 0.11373 101.286 0.193002C101.397 0.272275 101.492 0.372684 101.564 0.488467L168.153 107.056L170.038 106.327C170.638 106.096 171.379 106.37 171.983 107.043L173.345 108.564L163.346 112.42V110.376C163.346 109.476 163.71 108.774 164.31 108.542L166.19 107.818L99.7942 1.58957C99.6497 1.35483 99.6042 1.07236 99.6676 0.804094C99.7311 0.535833 99.8983 0.303684 100.133 0.158562Z" fill="white"/>
<path d="M149.512 78.3083L158.805 93.1799C158.933 93.3845 158.871 93.6542 158.666 93.7821L157.616 94.4382C157.411 94.5661 157.142 94.5039 157.014 94.2992L147.721 79.4276C147.593 79.2229 147.655 78.9533 147.86 78.8254L148.91 78.1692C149.115 78.0413 149.385 78.1036 149.512 78.3083Z" fill="#704C06"/>
<path opacity="0.5" d="M149.512 78.3083L158.805 93.1799C158.933 93.3845 158.871 93.6542 158.666 93.7821L157.616 94.4382C157.411 94.5661 157.142 94.5039 157.014 94.2992L147.721 79.4276C147.593 79.2229 147.655 78.9533 147.86 78.8254L148.91 78.1692C149.115 78.0413 149.385 78.1036 149.512 78.3083Z" fill="white"/>
<path d="M177.574 115.612C183.183 114.485 189.781 110.286 192.283 106.246L191.919 106.023C189.511 109.905 182.921 114.104 177.493 115.192L177.574 115.612Z" fill="#704C06"/>
<path d="M154.665 119.309L154.717 118.881C152.262 118.564 146.765 116.739 144.087 115.119L143.864 115.488C146.585 117.128 152.167 118.988 154.665 119.309Z" fill="#704C06"/>
<path d="M192.57 112.278C194.877 110.579 196.857 108.475 198.414 106.07L198.045 105.848C196.529 108.205 194.595 110.265 192.338 111.927L192.57 112.278Z" fill="#704C06"/>
<path d="M149.254 115.925L149.413 115.526C147.814 114.847 146.35 113.885 145.094 112.685L144.794 112.99C146.087 114.234 147.599 115.229 149.254 115.925Z" fill="#704C06"/>
<path d="M203.525 116.353C201.632 116.353 200.098 114.45 200.098 112.103C200.098 109.755 201.632 107.853 203.525 107.853C205.418 107.853 206.953 109.755 206.953 112.103C206.953 114.45 205.418 116.353 203.525 116.353Z" fill="#704C06"/>
<path opacity="0.8" d="M203.525 116.353C201.632 116.353 200.098 114.45 200.098 112.103C200.098 109.755 201.632 107.853 203.525 107.853C205.418 107.853 206.953 109.755 206.953 112.103C206.953 114.45 205.418 116.353 203.525 116.353Z" fill="white"/>
<path d="M174.057 103.255C171.567 103.255 169.549 100.752 169.549 97.6642C169.549 94.5762 171.567 92.0729 174.057 92.0729C176.546 92.0729 178.564 94.5762 178.564 97.6642C178.564 100.752 176.546 103.255 174.057 103.255Z" fill="#704C06"/>
<path opacity="0.8" d="M174.057 103.255C171.567 103.255 169.549 100.752 169.549 97.6642C169.549 94.5762 171.567 92.0729 174.057 92.0729C176.546 92.0729 178.564 94.5762 178.564 97.6642C178.564 100.752 176.546 103.255 174.057 103.255Z" fill="white"/>
<path d="M189.506 103.251C188.39 103.251 187.484 102.129 187.484 100.745C187.484 99.3605 188.39 98.2384 189.506 98.2384C190.623 98.2384 191.529 99.3605 191.529 100.745C191.529 102.129 190.623 103.251 189.506 103.251Z" fill="#704C06"/>
<path opacity="0.8" d="M189.506 103.251C188.39 103.251 187.484 102.129 187.484 100.745C187.484 99.3605 188.39 98.2384 189.506 98.2384C190.623 98.2384 191.529 99.3605 191.529 100.745C191.529 102.129 190.623 103.251 189.506 103.251Z" fill="white"/>
<path d="M152 110.059C153.517 110.406 153.744 110.685 154.023 112.565C154.301 110.685 154.528 110.423 156.045 110.059C154.528 109.712 154.301 109.429 154.023 107.548C153.744 109.429 153.517 109.712 152 110.059Z" fill="#704C06"/>
<path opacity="0.8" d="M152 110.059C153.517 110.406 153.744 110.685 154.023 112.565C154.301 110.685 154.528 110.423 156.045 110.059C154.528 109.712 154.301 109.429 154.023 107.548C153.744 109.429 153.517 109.712 152 110.059Z" fill="white"/>
<path d="M80.0847 38.264C79.2247 37.5282 78.2009 37.009 77.0991 36.7499C74.8684 36.2508 73.6869 36.2039 70.8335 36.3234C64.0092 36.5835 55.2954 37.9825 55.2954 37.9825C51.5335 32.0581 47.7716 30.3052 42.8794 26.4366C39.5056 23.5405 37.1257 21.3952 36.5413 20.5123C35.957 19.6294 35.8077 18.8574 35.3812 17.8892C34.8225 16.6096 33.8926 15.33 32.532 15.1466C31.1714 14.9632 29.8663 15.9272 28.4758 16.0509C26.3731 16.2343 24.4921 14.4045 22.3681 15.3215C22.1078 15.4614 21.8333 15.573 21.5492 15.6542C21.2847 15.6926 21.016 15.6926 20.7516 15.6542C20.1777 15.5753 19.5933 15.6322 19.0455 15.8205C18.5209 16.0295 18.0986 16.4305 17.5868 16.6736C17.3181 16.7973 17.028 16.874 16.7679 17.0148C16.561 17.1251 16.3815 17.2805 16.2427 17.4695C16.1039 17.6585 16.0094 17.8763 15.966 18.1067C15.9288 18.3378 15.958 18.5747 16.0501 18.7898C16.1422 19.005 16.2935 19.1896 16.4864 19.3223C16.7398 19.46 17.0182 19.5456 17.3053 19.5739C17.5697 19.6166 21.144 20.4568 21.144 20.4568C21.144 20.4568 23.8438 21.3568 25.2172 21.7748C27.9725 22.6278 31.2397 23.9415 33.3211 25.9205C34.4215 26.9612 36.6693 30.2412 37.5863 31.5932C40.8876 36.5579 47.7503 46.2954 51.5889 47.5451C55.5982 49.0209 67.9844 50.8378 78.2379 52.3093L80.0847 38.264Z" fill="#F0EADE"/>
<path d="M79.1976 45.0627L68.6498 38.4346C66.6878 38.8611 64.7215 40.2089 62.7254 43.1263C55.048 43.186 55.048 43.186 52.5188 43.2159C47.7119 43.2756 47.0721 42.414 43.5917 38.328C40.4867 34.6898 36.2215 27.4688 32.6472 25.349C32.8861 25.5367 33.1207 25.7329 33.3382 25.9376C34.4386 26.9783 36.6864 30.2582 37.6034 31.6103C40.8876 36.5579 47.7503 46.2954 51.589 47.5451C55.5983 49.0208 67.9844 50.8378 78.2379 52.3093L79.1976 45.0627Z" fill="#F0EADE"/>
<path d="M73.606 49.8312C72.5525 47.5323 70.0275 44.713 63.1775 44.2225C57.9441 43.8343 44.2443 44.1372 44.2443 44.1372C38.2986 39.1554 32.788 39.1384 27.9982 37.4024C23.2084 35.6665 21.8222 34.5618 21.08 33.8026C20.3379 33.0434 20.0436 32.314 19.4379 31.4439C18.6489 30.3094 17.4973 29.226 16.1196 29.2857C14.742 29.3455 13.6501 30.5653 12.3065 30.9406C11.0781 31.2904 7.65746 30.3819 6.42055 30.2881C5.84608 30.2075 5.26066 30.2675 4.71447 30.4629C4.13181 30.7763 3.48594 30.9542 2.82499 30.9833C2.40845 30.9189 1.98814 30.8818 1.56676 30.8724C1.26558 30.9071 0.974992 31.0044 0.713717 31.1582C0.478108 31.2775 0.276952 31.4552 0.129384 31.6742C0.0565523 31.7848 0.0128843 31.912 0.0024437 32.044C-0.00799688 32.176 0.0151297 32.3085 0.0696715 32.4292C0.146445 32.5699 0.274401 32.6766 0.351175 32.8173C0.491926 33.069 0.45354 33.3846 0.581496 33.6448C0.709452 33.905 1.03787 34.0713 1.27672 34.2888C1.87385 34.8305 2.15535 35.4404 2.9828 35.7518C3.4948 35.9254 4.02382 36.0441 4.56093 36.1058C5.72106 36.2807 9.02659 37.0356 10.191 37.1636C13.0572 37.4664 16.5163 38.1531 18.9432 39.7227L26.7144 44.6618C30.5957 47.1399 39.4545 52.7955 42.743 53.8618C46.0314 54.9281 59.8251 59.8843 70.3473 59.4663C70.3559 59.4578 77.9309 59.2871 73.606 49.8312Z" fill="#F0EADE"/>
<path d="M26.7143 44.6618C30.5957 47.1399 39.4545 52.7955 42.743 53.8618C46.0314 54.9281 59.8251 59.8843 70.3473 59.4663C71.5705 59.4001 72.7374 58.9306 73.6657 58.1313L73.1837 55.1457C71.0127 56.9413 55.4575 55.0177 52.2245 54.5016C49.4521 54.0751 44.3979 53.623 37.3859 49.8526C30.826 46.3295 19.8986 40.2431 18.4996 39.4625C18.6489 39.5478 18.7939 39.6331 18.9261 39.727L26.7143 44.6618Z" fill="#F0EADE"/>
<path d="M86.1029 61.4752C78.5066 58.6985 72.4842 59.8288 69.3108 59.4791C70.7312 55.6404 69.8696 50.4582 67.8351 47.7839C66.6363 46.1973 65.0253 44.9699 63.1775 44.2353C67.4427 36.0205 75.0219 36.3873 80.153 38.3663L86.1029 61.4752Z" fill="#37474F"/>
<path d="M84.2818 54.395L80.7843 54.1561L76.1822 55.7513C72.0534 55.9561 70.0019 55.8324 70.0019 55.8324C69.9644 57.0749 69.7327 58.3039 69.3152 59.4748C72.4885 59.8246 78.511 58.6943 86.1073 61.471L84.2818 54.395Z" fill="#263238"/>
<path opacity="0.3" d="M80.1657 38.3536L80.0932 38.3237V38.264C79.2332 37.5282 78.2094 37.009 77.1076 36.7499C74.8769 36.2508 73.6954 36.2039 70.842 36.3234C64.0177 36.5835 55.3039 37.9825 55.3039 37.9825C51.542 32.0581 47.7801 30.3052 42.8879 26.4366C39.5141 23.5405 37.1342 21.3952 36.5498 20.5123C35.9655 19.6294 35.8077 18.8574 35.3812 17.8892C34.8224 16.6096 33.8926 15.33 32.532 15.1466C31.1714 14.9632 29.8663 15.9272 28.4758 16.0509C26.3731 16.2343 24.4921 14.4045 22.368 15.3215C22.1078 15.4614 21.8332 15.573 21.5491 15.6542C21.2846 15.6926 21.016 15.6926 20.7515 15.6542C20.1777 15.5753 19.5933 15.6322 19.0454 15.8205C18.5208 16.0295 18.0986 16.4305 17.5867 16.6736C17.318 16.7973 17.028 16.874 16.7678 17.0148C16.5609 17.1251 16.3815 17.2805 16.2427 17.4695C16.1039 17.6585 16.0093 17.8763 15.966 18.1067C15.9288 18.3378 15.958 18.5747 16.0501 18.7898C16.1422 19.005 16.2935 19.1896 16.4863 19.3223C16.7397 19.46 17.0182 19.5456 17.3052 19.5739C17.5697 19.6166 21.1439 20.4568 21.1439 20.4568C21.1439 20.4568 23.8438 21.3568 25.2172 21.7748C27.6953 22.5297 30.5828 23.6813 32.66 25.3405C32.8988 25.5281 33.1334 25.7243 33.3509 25.9291C33.6059 26.1811 33.8479 26.4459 34.076 26.7224L34.3532 27.0636C35.4921 28.4882 36.9124 30.5867 37.6033 31.6018C39.8298 34.9542 43.6855 40.4819 47.136 44.1073C45.4001 44.1329 44.2613 44.1585 44.2613 44.1585C38.3156 39.1768 32.8092 39.1597 28.0152 37.4238C23.2211 35.6878 21.8392 34.5831 21.097 33.8239C20.3549 33.0647 20.0606 32.3354 19.4549 31.4653C18.6658 30.3307 17.5142 29.2474 16.1366 29.3071C14.7589 29.3668 13.667 30.5867 12.3235 30.962C11.0951 31.3117 7.67443 30.4033 6.43752 30.3094C5.86305 30.2289 5.27763 30.2889 4.73144 30.4843C4.14878 30.7977 3.50291 30.9755 2.84196 31.0047C2.42542 30.9402 2.00511 30.9032 1.58372 30.8938C1.28254 30.9284 0.991958 31.0258 0.730684 31.1795C0.495074 31.2989 0.29392 31.4766 0.146352 31.6956C0.0735201 31.8062 0.029852 31.9334 0.0194115 32.0654C0.00897089 32.1974 0.0320975 32.3299 0.0866393 32.4505C0.163413 32.5913 0.291369 32.6979 0.368142 32.8387C0.508894 33.0903 0.470508 33.406 0.598463 33.6661C0.726419 33.9263 1.05484 34.0927 1.29369 34.3102C1.89082 34.8519 2.17232 35.4618 2.99977 35.7731C3.51177 35.9468 4.04079 36.0654 4.57789 36.1271C5.73803 36.302 9.04356 37.057 10.208 37.1849C12.8481 37.4664 15.9916 38.0721 18.3715 39.3815L18.4441 39.4199L18.5251 39.4668C18.6744 39.5521 18.8194 39.6374 18.9516 39.7312L22.7348 42.1368L24.4409 43.2159L25.5968 43.9538L26.7356 44.6789L27.9512 45.4551L28.7061 45.9328L29.3758 46.3594L30.4165 47.0119C30.9496 47.3489 31.5084 47.6944 32.0756 48.0441C33.0225 48.6284 33.9992 49.2298 34.9717 49.8099C38.081 51.6653 41.1178 53.3458 42.7642 53.8789C43.3784 54.0794 44.3637 54.4163 45.6304 54.83C46.2617 55.0348 46.9654 55.2566 47.7246 55.4954C48.4838 55.7343 49.3028 55.9817 50.1686 56.2333L51.0472 56.4849C56.1228 57.9181 62.5633 59.3853 68.3597 59.5004C68.6881 59.5004 69.0122 59.5004 69.3321 59.5004C72.5054 59.8502 78.5279 58.7199 86.1242 61.4966L80.1657 38.3536Z" fill="#F0EADE"/>
<path d="M133.268 70.5345C133.268 70.5345 126.093 67.9498 120.519 66.0176C115.733 64.3585 112.696 63.3348 108.188 63.8083C111.152 61.5477 112.33 58.69 113.383 56.6257C114.333 55.4529 115.538 54.5121 116.906 53.8746C120.745 54.2457 122.246 56.6427 124.946 58.0972C128.171 59.8331 129.382 60.0975 133.268 61.7013C137.401 63.4073 138.04 63.5523 140.395 65.6508C144.912 69.6686 147.893 73.2045 150.149 75.2219C152.627 77.4398 153.715 78.1223 155.493 80.3999C156.184 81.2828 156.53 82.4728 156.811 83.5519C157.165 84.9039 157.519 85.7826 157.609 87.2925C157.636 87.6075 157.636 87.9243 157.609 88.2393C157.579 88.5336 157.515 88.8791 157.183 88.9175C157.183 88.9175 157.183 89.1265 157.183 89.3781C157.183 90.2951 156.688 90.5639 156.3 90.6193C156.3 91.0245 156.368 91.3444 156.227 91.4723C156.086 91.5645 155.924 91.6188 155.756 91.63C155.588 91.6412 155.419 91.609 155.267 91.5363C155.115 91.4686 154.979 91.3699 154.868 91.2466C154.756 91.1232 154.671 90.9778 154.619 90.8198C154.481 90.8511 154.338 90.8476 154.201 90.8096C154.065 90.7716 153.94 90.7004 153.839 90.6022C153.489 90.2824 153.369 89.5829 153.237 89.0199C153.096 88.3431 152.915 87.6751 152.696 87.0195C152.28 85.847 151.505 84.8353 150.482 84.1277C150.055 83.8632 150.055 84.2002 150.026 84.5542C150.018 84.9114 150.029 85.2688 150.06 85.6248C150.155 86.3929 150.177 87.1685 150.124 87.9408C149.966 89.2203 149.198 89.5231 148.972 89.1478C148.746 88.7725 148.264 87.1048 147.765 85.693C147.266 84.2812 147.471 82.7756 146.784 81.0013C145.82 78.6128 133.268 70.5345 133.268 70.5345Z" fill="white"/>
<path d="M153.642 84.5286C153.792 85.0617 153.979 85.5821 154.15 86.1025C154.34 86.6137 154.473 87.1444 154.547 87.6848L154.751 89.3269L154.871 90.1459C154.905 90.4018 154.871 90.7217 154.611 90.8368C154.679 90.8196 154.742 90.7856 154.794 90.738C154.846 90.6903 154.886 90.6305 154.909 90.5639C154.958 90.4273 154.98 90.2823 154.973 90.1373L154.909 89.3056C154.862 88.7554 154.815 88.2052 154.743 87.655C154.661 87.1016 154.507 86.5611 154.287 86.047C154.09 85.5352 153.864 85.0319 153.642 84.5286ZM155.114 84.2471C155.246 84.776 155.391 85.3006 155.54 85.821C155.69 86.3413 155.839 86.8702 155.941 87.3863C156.044 87.9024 156.035 88.4654 156.099 89.0028C156.163 89.5402 156.214 90.0819 156.3 90.6193C156.3 90.0734 156.274 89.5274 156.248 88.9857C156.223 88.4441 156.189 87.8981 156.138 87.3479C156.014 86.8062 155.856 86.2944 155.685 85.774C155.515 85.2537 155.327 84.7547 155.114 84.2471ZM156.133 83.5263C156.422 84.3962 156.649 85.2856 156.812 86.1878C156.897 86.6399 156.982 87.0877 157.033 87.5441C157.084 88.0005 157.114 88.4569 157.161 88.9175C157.202 88.4566 157.21 87.9934 157.187 87.5313C157.16 87.0667 157.099 86.6048 157.003 86.1494C156.849 85.2357 156.555 84.3512 156.133 83.5263Z" fill="white"/>
<path opacity="0.3" d="M133.268 70.5345C133.268 70.5345 126.093 67.9498 120.519 66.0176C115.733 64.3585 112.696 63.3348 108.188 63.8083C111.152 61.5477 112.33 58.69 113.383 56.6257C114.333 55.4529 115.538 54.5121 116.906 53.8746C120.745 54.2457 122.246 56.6427 124.946 58.0972C128.171 59.8331 129.382 60.0975 133.268 61.7013C137.401 63.4073 138.04 63.5523 140.395 65.6508C144.912 69.6686 147.893 73.2045 150.149 75.2219C152.627 77.4398 153.715 78.1223 155.493 80.3999C156.184 81.2828 156.53 82.4728 156.811 83.5519C157.165 84.9039 157.519 85.7826 157.609 87.2925C157.636 87.6075 157.636 87.9243 157.609 88.2393C157.579 88.5336 157.515 88.8791 157.183 88.9175C157.183 88.9175 157.183 89.1265 157.183 89.3781C157.183 90.2951 156.688 90.5639 156.3 90.6193C156.3 91.0245 156.368 91.3444 156.227 91.4723C156.086 91.5645 155.924 91.6188 155.756 91.63C155.588 91.6412 155.419 91.609 155.267 91.5363C155.115 91.4686 154.979 91.3699 154.868 91.2466C154.756 91.1232 154.671 90.9778 154.619 90.8198C154.481 90.8511 154.338 90.8476 154.201 90.8096C154.065 90.7716 153.94 90.7004 153.839 90.6022C153.489 90.2824 153.369 89.5829 153.237 89.0199C153.096 88.3431 152.915 87.6751 152.696 87.0195C152.28 85.847 151.505 84.8353 150.482 84.1277C150.055 83.8632 150.055 84.2002 150.026 84.5542C150.018 84.9114 150.029 85.2688 150.06 85.6248C150.155 86.3929 150.177 87.1685 150.124 87.9408C149.966 89.2203 149.198 89.5231 148.972 89.1478C148.746 88.7725 148.264 87.1048 147.765 85.693C147.266 84.2812 147.471 82.7756 146.784 81.0013C145.82 78.6128 133.268 70.5345 133.268 70.5345Z" fill="white"/>
<path opacity="0.2" d="M135.101 62.6524C135.298 63.932 136.185 65.0111 137.183 65.8343C138.181 66.6574 139.422 67.3569 140.433 68.2526C141.444 69.1483 142.276 70.4407 141.909 71.7117C141.482 73.1235 139.853 73.7291 138.407 73.9808C135.421 74.4969 132.009 73.5074 129.245 74.9106C127.927 75.5845 126.891 76.7062 125.611 77.4484C122.583 79.1929 118.787 78.519 115.43 77.5166C112.074 76.5143 108.606 75.2177 105.194 75.8831C103.586 76.1944 102.072 76.928 100.451 77.1626C96.9151 77.7043 93.4305 75.8532 90.6922 73.5457C89.2293 72.3131 87.7876 70.88 85.9195 70.4705C84.2646 70.1123 82.3921 70.6028 80.8012 69.9502C79.2386 69.2694 77.8352 68.27 76.681 67.0157C75.326 65.5212 74.2005 63.8337 73.3414 62.0084C72.0403 59.3419 71.1241 56.5042 70.6202 53.5803C70.1425 50.7952 69.8695 47.6645 70.6927 44.922C71.4946 42.2562 74.5314 37.8503 80.0761 38.2853C80.3704 38.81 82.0808 41.3051 84.6015 42.4866C86.1327 43.2512 87.7375 43.8586 89.3913 44.2993C91.4927 44.8338 93.594 45.3627 95.6953 45.8859C100.481 47.0716 105.241 48.2531 110.116 48.9825C115.015 49.7115 119.873 50.6967 124.669 51.934C127.522 52.6676 130.423 53.5292 132.773 55.295C134.052 56.2461 135.165 57.5598 135.293 59.1336C135.383 60.2554 134.952 61.3729 135.072 62.4903C135.084 62.5458 135.093 62.597 135.101 62.6524Z" fill="white"/>
<path opacity="0.2" d="M73.8576 58.4768C75.7897 61.1994 78.171 63.5735 80.8995 65.4973C82.0084 66.2608 83.2411 66.9517 84.5846 67.0242C85.5741 67.0711 86.5551 66.7811 87.5404 66.8579C89.7839 67.037 91.3791 68.9905 93.0553 70.5046C95.1111 72.3941 98.1351 73.8443 100.643 72.6372C101.287 72.3216 101.85 71.8524 102.515 71.5923C103.978 71.025 105.608 71.5709 107.118 72.0188C108.842 72.5251 110.605 72.8902 112.389 73.1107C113.84 73.2898 116.194 73.422 117.102 71.9761C117.366 71.4267 117.673 70.899 118.019 70.398C118.898 69.4042 120.434 69.4725 121.76 69.4853C123.462 69.5056 125.159 69.3078 126.81 68.8967C127.936 68.6152 129.186 68.0863 129.501 66.9731C129.872 65.6551 128.717 64.4438 127.68 63.5609C126.644 62.678 125.509 61.4283 125.931 60.1146C126.2 59.2914 127.036 58.7455 127.288 57.918C127.378 57.5371 127.371 57.1395 127.267 56.7621C127.162 56.3848 126.964 56.04 126.691 55.7598C126.137 55.2069 125.485 54.7627 124.767 54.4504C119.303 51.6141 113.213 50.3388 107.246 49.0635C101.061 47.737 97.039 47.1015 90.7606 45.5319C87.8261 44.7983 86.3504 44.4997 83.9363 42.6529C82.359 41.4942 81.0401 40.0198 80.0635 38.3237C69.8569 38.264 69.0038 51.516 73.8576 58.4768Z" fill="white"/>
<path opacity="0.7" d="M122.003 61.6416C122.387 62.6055 123.338 63.2794 123.18 64.5334C123.116 64.8923 122.966 65.2304 122.743 65.5191C122.52 65.8079 122.231 66.0389 121.901 66.1925C121.23 66.4899 120.502 66.6355 119.768 66.6191C118.715 66.6527 117.662 66.5553 116.633 66.329C115.926 66.1125 115.189 66.006 114.449 66.0134C112.274 66.2096 112.573 68.6664 111.404 69.8862C110.953 70.293 110.36 70.5059 109.753 70.4791C106.644 70.5217 103.889 67.9413 100.797 67.5147C100.354 67.4351 99.9001 67.4563 99.4674 67.5767C99.0346 67.6971 98.6346 67.9135 98.2972 68.21C98.0722 68.4911 97.8161 68.7458 97.5337 68.9692C97.0969 69.1817 96.5968 69.2242 96.1304 69.0886C92.7695 68.419 90.7307 63.8296 87.1735 64.1324C86.4228 64.1922 85.7191 64.5376 84.9727 64.5845C83.8808 64.6571 82.8401 64.0983 81.9358 63.5055C76.4849 59.9781 71.5373 54.5784 71.5672 47.7498C71.6578 45.6248 72.3161 43.5629 73.4737 41.7785C74.1869 40.6867 75.1657 39.7938 76.3183 39.1836C77.4709 38.5734 78.7595 38.2658 80.0634 38.2896C80.4899 39.0062 81.0316 40.8061 82.6225 42.1752C87.1565 46.0651 91.9847 46.7603 96.8342 47.7839C99.9478 48.4408 104.708 49.3322 107.809 50.0999C110.909 50.8677 113.656 51.5032 116.744 52.4415C118.152 52.868 119.585 53.3287 120.745 54.2244C121.905 55.1201 122.767 56.5574 122.583 58.0161C122.489 58.7881 122.114 59.4919 121.914 60.2426C121.785 60.7057 121.816 61.1987 122.003 61.6416Z" fill="white"/>
<path d="M109.011 47.2593C109.728 46.0096 108.888 42.9941 110.914 40.1236C112.577 37.7607 114.752 36.7115 117.627 36.4854C119.525 36.3092 121.439 36.5345 123.244 37.1465C125.058 37.768 126.642 38.9213 127.791 40.4563C128.593 41.5696 129.015 42.8704 129.655 44.0647C130.251 45.1408 130.558 46.3532 130.546 47.5835C130.418 49.844 129.011 51.4222 126.964 52.369C126.267 52.6571 125.507 52.7599 124.758 52.6676L120.348 51.6312L113.157 49.9251C112.155 49.6948 109.749 47.5408 109.011 47.2593Z" fill="#263238"/>
<path d="M111.097 55.9561C111.097 55.9561 108.465 59.9696 105.582 60.5028C102.699 61.0359 100.353 58.4981 102.021 55.0049C103.688 51.5117 105.33 50.2066 106.145 46.7219L104.665 45.4125C103.373 47.2645 101.473 48.6047 99.2952 49.2C94.8509 50.326 90.9055 49.6265 88.6322 47.0674C87.2417 45.485 87.2929 42.7809 87.2929 42.7809C86.9281 42.7899 86.5637 42.7497 86.2096 42.6614C83.3903 41.8468 82.3282 39.8123 80.0762 38.3024C78.8086 38.4658 77.5941 38.9131 76.5233 39.6109C75.4525 40.3088 74.553 41.2393 73.8917 42.333C70.7695 47.3318 72.6121 53.9514 77.7303 56.856C79.6923 57.9692 81.8335 59.1635 85.058 60.9463C91.1998 64.3585 99.2269 66.7257 106.559 64.3926C107.118 64.2178 107.651 64.0258 108.167 63.8253C108.987 63.2556 109.72 62.5687 110.342 61.7866C111.526 60.1823 112.538 58.4582 113.362 56.6428L112.155 55.3248L111.097 55.9561Z" fill="#37474F"/>
<path d="M115.729 54.5229C114.828 55.0782 114.033 55.7903 113.383 56.6257L112.155 55.3248L111.08 55.9603C111.08 55.9603 108.448 59.9739 105.569 60.5028C102.69 61.0316 100.336 58.5024 102.008 55.0092C103.68 51.516 105.33 50.2066 106.145 46.7219C107.851 48.0953 108.312 47.7583 109.498 46.9138L115.729 54.5229Z" fill="white"/>
<path d="M112.905 44.4997L105.518 49.7331C105.518 49.7331 104.584 51.0767 104.665 54.2073C104.708 55.7641 105.727 58.4981 107.224 58.2422L112.155 55.3248L112.905 44.4997Z" fill="white"/>
<path d="M127.808 47.1911C127.808 47.1911 126.341 47.8308 122.6 46.4319C119.427 45.2461 119.337 43.6979 115.128 44.9817C113.528 45.357 114.518 43.877 114.893 43.3225C115.106 43.0263 115.243 42.6832 115.295 42.3222C115.346 41.9613 115.309 41.5933 115.187 41.2496C114.833 40.3241 113.481 39.9274 112.296 40.6824C111.81 40.97 111.404 41.3734 111.113 41.8565C110.822 42.3395 110.655 42.8872 110.628 43.4505C110.634 43.7449 110.705 44.0343 110.835 44.2987C110.964 44.5631 111.15 44.7962 111.378 44.9817C111.545 45.1133 111.742 45.2013 111.951 45.2377C112.161 45.2742 112.376 45.258 112.577 45.1907H112.905L111.199 47.7498C110.699 48.8143 110.365 49.9493 110.21 51.115C110.329 52.0577 111.17 54.0623 111.468 54.3097L111.818 54.8386C112.94 56.3698 114.919 58.0886 115.938 58.4725C116.957 58.8564 119.022 59.4791 123.061 54.8556C123.551 54.2969 123.876 53.3884 124.34 52.9917C127.868 50.1213 127.753 47.4768 127.808 47.1911Z" fill="white"/>
<path d="M110.21 51.1449C110.343 51.7042 110.529 52.2497 110.764 52.7742C110.879 53.0386 111.003 53.2945 111.131 53.5504C111.191 53.6784 111.259 53.8064 111.327 53.9258C111.388 54.0386 111.462 54.1432 111.549 54.2372C111.886 54.7398 112.265 55.2122 112.684 55.6489C113.092 56.1001 113.527 56.5273 113.985 56.9285C114.906 57.7005 115.887 58.4895 117.055 58.5493C117.643 58.5704 118.228 58.452 118.762 58.2038C119.308 57.9572 119.828 57.6556 120.314 57.3038C121.286 56.5658 122.197 55.7514 123.04 54.8684C122.289 55.8463 121.431 56.7363 120.48 57.5213C119.996 57.9175 119.466 58.2553 118.902 58.5279C118.324 58.81 117.686 58.9489 117.043 58.9331C116.719 58.9225 116.398 58.8635 116.092 58.7583C115.791 58.6624 115.504 58.5276 115.239 58.3573C114.716 58.0161 114.221 57.6339 113.758 57.2143C112.819 56.4027 112.009 55.4519 111.357 54.395L111.383 54.4248C111.272 54.3073 111.183 54.1717 111.118 54.0239C111.05 53.8917 110.99 53.7594 110.931 53.6272C110.811 53.3585 110.713 53.0855 110.619 52.8126C110.421 52.2736 110.284 51.7143 110.21 51.1449Z" fill="#F7D798"/>
<path d="M111.536 47.0503C111.536 47.0503 109.63 49.0677 109.655 51.2686C109.79 52.9096 110.366 54.4836 111.323 55.8238L112.176 55.3205C111.78 54.7545 111.417 54.1664 111.088 53.559C110.813 52.966 110.592 52.3493 110.427 51.7164C109.903 49.78 111.374 47.6005 111.536 47.0503Z" fill="#F7D798"/>
<path d="M119.286 49.6606C119.005 50.0104 119.017 49.4431 118.685 49.1744C118.352 48.9057 117.798 49.0336 118.079 48.6839C118.143 48.6046 118.222 48.5388 118.312 48.4901C118.402 48.4414 118.5 48.4109 118.601 48.4002C118.703 48.3895 118.805 48.3988 118.903 48.4278C119.001 48.4567 119.092 48.5046 119.171 48.5687C119.25 48.6329 119.316 48.712 119.365 48.8015C119.413 48.8911 119.444 48.9894 119.455 49.0908C119.465 49.1922 119.456 49.2947 119.427 49.3925C119.398 49.4902 119.35 49.5814 119.286 49.6606Z" fill="#263238"/>
<path d="M120.212 47.3233L118.433 46.6579C118.529 46.4195 118.714 46.2274 118.948 46.1217C119.183 46.0161 119.449 46.0049 119.691 46.0907C119.808 46.1351 119.915 46.2028 120.005 46.2896C120.095 46.3764 120.166 46.4806 120.215 46.5958C120.264 46.711 120.288 46.8348 120.288 46.9599C120.287 47.0849 120.261 47.2085 120.212 47.3233Z" fill="#263238"/>
<path d="M124.95 51.4136L123.948 49.7801C124.051 49.7097 124.168 49.6612 124.29 49.6372C124.413 49.6133 124.539 49.6145 124.661 49.6409C124.783 49.6672 124.899 49.7181 125 49.7904C125.102 49.8627 125.188 49.955 125.253 50.0616C125.385 50.2828 125.428 50.5464 125.371 50.798C125.315 51.0495 125.164 51.2699 124.95 51.4136Z" fill="#263238"/>
<path d="M123.765 52.7145C123.539 53.0984 123.5 52.5012 123.129 52.288C122.758 52.0747 122.204 52.3093 122.43 51.9254C122.482 51.8378 122.551 51.7612 122.632 51.7002C122.714 51.6391 122.807 51.5948 122.906 51.5696C123.004 51.5445 123.107 51.539 123.208 51.5536C123.309 51.5682 123.406 51.6025 123.494 51.6546C123.581 51.7067 123.658 51.7755 123.719 51.8572C123.78 51.9389 123.824 52.0318 123.85 52.1306C123.875 52.2294 123.88 52.3322 123.866 52.4331C123.851 52.5341 123.817 52.6311 123.765 52.7188V52.7145Z" fill="#263238"/>
<path d="M121.167 50.0232L118.804 54.0836L121.261 54.7746C121.261 54.7746 122.007 50.3857 121.167 50.0232Z" fill="#E9C887"/>
<path d="M115.925 52.5951L117.418 54.7703C117.266 54.8734 117.094 54.9438 116.913 54.9768C116.732 55.0099 116.546 55.0051 116.367 54.9626C116.189 54.92 116.021 54.8408 115.874 54.7299C115.727 54.619 115.605 54.4788 115.516 54.3182C115.428 54.1786 115.369 54.0229 115.342 53.8603C115.315 53.6976 115.321 53.5312 115.359 53.3707C115.397 53.2103 115.467 53.0591 115.564 52.9259C115.661 52.7928 115.784 52.6803 115.925 52.5951Z" fill="#F28F8F"/>
<path d="M116.045 54.8215C116.223 54.528 116.286 54.1787 116.221 53.8415C116.156 53.5042 115.969 53.2029 115.695 52.996C115.659 52.9722 115.622 52.9508 115.584 52.932C115.425 53.1252 115.333 53.3642 115.321 53.6138C115.309 53.8635 115.377 54.1104 115.516 54.3182C115.647 54.5274 115.829 54.7004 116.045 54.8215Z" fill="#E9C887"/>
<path d="M99.2952 49.2043C94.8509 50.326 90.9056 49.6308 88.6322 47.0717C87.31 45.566 87.293 43.0453 87.293 42.8065C90.5303 42.8747 96.3053 40.5843 97.7086 40.4947C99.2057 40.3966 102.17 43.1434 104.665 45.4381C103.368 47.2797 101.469 48.6115 99.2952 49.2043Z" fill="white"/>
<path d="M90.1079 43.8642C90.624 44.4741 90.9311 45.3229 90.6581 46.0309L91.5112 46.193L92.8931 44.6618L93.0339 43.604L92.1382 42.3245L91.5879 42.1069C90.7023 42.3364 89.8054 42.52 88.9009 42.6572C89.3103 43.0368 89.8222 43.5273 90.1079 43.8642Z" fill="white"/>
<path d="M104.665 45.4125C103.569 44.0178 102.673 41.5525 100.285 39.0744C98.4593 37.1892 94.2623 34.6556 92.2875 33.0135C90.3127 31.3714 85.2542 27.5413 83.7059 26.2788C82.1577 25.0163 80.699 24.0182 76.6598 26.8845C72.6207 29.7507 65.2078 34.5106 61.8639 36.6603C59.4114 38.1863 57.1883 40.0533 55.2613 42.205C54.4893 43.0581 54.0585 44.2054 53.696 45.2632C53.2781 46.4802 53.0005 47.7409 52.8685 49.0208C52.8267 49.3346 52.811 49.6513 52.8216 49.9677C52.8216 50.262 52.8771 50.616 53.2482 50.6757C53.2482 50.6757 53.2482 50.8847 53.2098 51.1321C53.1373 52.0491 53.6363 52.352 54.0628 52.433C54.0244 52.8339 53.9434 53.1495 54.0628 53.286C54.2034 53.3892 54.3678 53.4554 54.5407 53.4785C54.7136 53.5016 54.8895 53.4809 55.0523 53.4183C55.2121 53.3642 55.3584 53.2764 55.4813 53.1609C55.6042 53.0453 55.7008 52.9047 55.7646 52.7486C55.9048 52.7898 56.0527 52.7965 56.196 52.7683C56.3393 52.7401 56.4737 52.6777 56.5878 52.5865C56.9717 52.2922 57.138 51.597 57.3086 51.0468C57.497 50.3799 57.7249 49.7247 57.9911 49.0848C58.5062 47.9375 59.3705 46.9822 60.4606 46.3551C60.917 46.1205 60.917 46.4532 60.9085 46.8115C60.8936 47.1699 60.8594 47.5273 60.8061 47.882C60.6587 48.6408 60.5872 49.4123 60.5928 50.1852C60.6781 51.4648 61.4459 51.8316 61.7103 51.4648C61.9747 51.098 62.5633 49.4729 63.1733 48.0953C63.7832 46.7176 63.9751 44.7471 64.7983 43.041C65.9329 40.6824 80.0379 34.6812 80.0379 34.6812C80.0379 34.6812 87.0968 39.9615 88.5683 41.3392C89.818 42.5207 92.2662 44.8665 90.445 46.2058C94.241 49.2085 102.515 47.7967 104.665 45.4125Z" fill="white"/>
<path d="M56.383 48.027C56.1253 48.5248 55.9332 49.0538 55.8115 49.6009C55.7049 50.1468 55.6196 50.6928 55.5343 51.2387L55.4191 52.0619C55.4019 52.2052 55.415 52.3505 55.4575 52.4884C55.479 52.557 55.5165 52.6195 55.5669 52.6706C55.6173 52.7218 55.6793 52.7602 55.7475 52.7827C55.6373 52.706 55.5557 52.5948 55.5155 52.4666C55.4754 52.3385 55.479 52.2006 55.5257 52.0747L55.7006 51.2686L56.012 49.6435C56.1244 49.1086 56.296 48.5879 56.5238 48.091C56.7328 47.5792 56.9503 47.0759 57.1465 46.5513C56.8821 47.0418 56.6219 47.528 56.383 48.027ZM54.9627 47.6559C54.758 48.1635 54.5575 48.6625 54.3954 49.1957C54.3101 49.7416 54.2462 50.279 54.1779 50.8207C54.1097 51.3624 54.0628 51.9041 54.0286 52.45C54.1481 51.9169 54.2419 51.3837 54.3357 50.8506C54.4296 50.3174 54.4978 49.7715 54.5959 49.2469C54.694 48.7222 54.9371 48.2275 55.112 47.7157C55.2869 47.2038 55.4703 46.6877 55.6409 46.1717C55.3892 46.6579 55.176 47.1569 54.9627 47.6474V47.6559ZM53.568 47.9374C53.4417 48.3849 53.349 48.8411 53.2908 49.3023C53.2411 49.764 53.2211 50.2285 53.231 50.6928C53.3078 50.2364 53.3633 49.7758 53.4486 49.3279C53.5339 48.8801 53.649 48.4365 53.7642 47.9929C53.9811 47.1008 54.2663 46.2267 54.6172 45.3783C54.1358 46.1712 53.7817 47.0348 53.568 47.9374Z" fill="white"/>
<g opacity="0.15">
<path opacity="0.5" d="M17.3054 16.7802C17.975 17.3006 18.5849 17.8678 18.6702 18.5545C18.6938 18.9873 18.6389 19.4208 18.5081 19.8341L21.144 20.4483L23.2766 21.152C22.9567 19.9194 23.3491 18.5417 24.4538 17.2579C24.9814 16.6642 25.577 16.1345 26.2282 15.6798C24.9486 15.2533 23.7074 14.7457 22.3596 15.3258C22.0994 15.4657 21.8248 15.5772 21.5407 15.6585C21.2748 15.6968 21.0047 15.6968 20.7388 15.6585C20.165 15.579 19.5805 15.636 19.0328 15.8248C18.5081 16.0338 18.0859 16.4347 17.5741 16.6778C17.5016 16.7077 17.4035 16.7418 17.3054 16.7802Z" fill="white"/>
<path opacity="0.5" d="M26.0746 42.3885C27.7807 43.1093 28.5527 44.312 29.9133 45.2163C31.5469 46.2868 33.9738 46.8968 36.3495 47.4896C38.7252 48.0825 41.1436 48.6839 42.8113 49.7417C44.479 50.7994 45.2168 52.4287 43.9586 54.0069C43.9032 54.0794 43.8392 54.1476 43.7752 54.2158L45.5922 54.8172L46.3514 55.0604C47.0423 54.1775 47.6779 53.2946 47.8954 52.4031C48.2537 50.9828 47.503 49.6905 46.3642 48.59C44.8146 47.1665 42.9797 46.0891 40.9815 45.4295C38.9513 44.7044 36.5926 44.2012 34.7543 43.3481C32.916 42.4951 31.5895 41.1643 32.2592 39.6545C32.4132 39.3401 32.6162 39.0522 32.8606 38.8014C31.4317 38.4431 30.0498 38.1105 28.719 37.6797C28.0878 38.601 26.7315 39.4668 25.0552 39.8507C23.2852 40.2559 21.4682 40.1492 19.6811 40.2132L22.1848 41.8041C23.5074 41.7373 24.83 41.936 26.0746 42.3885Z" fill="white"/>
<path opacity="0.5" d="M156.219 91.4894C156.246 91.4554 156.266 91.4162 156.278 91.3743C155.932 91.4034 155.59 91.4634 155.255 91.5534C155.289 91.5709 155.325 91.5852 155.361 91.5961C155.445 91.619 155.531 91.6347 155.617 91.643H155.754C155.842 91.6406 155.93 91.6262 156.014 91.6003C156.09 91.5805 156.16 91.5424 156.219 91.4894Z" fill="white"/>
<path opacity="0.5" d="M154.188 78.8687C153.428 78.0848 152.624 77.343 151.783 76.6465C151.301 76.22 150.772 75.7935 150.149 75.2219C147.893 73.2045 144.912 69.6772 140.395 65.6508L140.173 65.4504C139.559 65.2243 138.936 65.0239 138.296 64.8021C137.196 64.4523 136.006 64.1111 135.498 63.4671C135.286 63.1913 135.184 62.846 135.213 62.4989L134.667 62.2728L133.268 61.7226C132.338 61.3387 131.562 61.0316 130.875 60.7629C129.506 62.3922 126.883 63.8637 123.863 64.35C122.191 64.6272 120.54 64.6059 118.877 64.7423C118.348 64.785 117.806 64.8532 117.269 64.9471C118.28 65.2627 119.346 65.6295 120.519 66.039L120.86 66.1541L121.035 66.12C122.997 65.7276 124.993 65.638 126.981 65.3949C128.251 65.1825 129.533 65.0515 130.819 65.0025C133.379 64.9727 135.251 65.8556 136.85 66.7299C139.855 68.3541 142.637 70.3613 145.125 72.7012C147.027 74.5352 148.605 76.7489 147.053 79.099C146.797 79.4767 146.501 79.8257 146.17 80.1397C146.423 80.4035 146.634 80.7058 146.793 81.0354C146.952 81.4508 147.076 81.8788 147.164 82.315C147.165 82.3462 147.165 82.3776 147.164 82.4088L150.252 80.5833C151.466 79.8086 152.794 79.23 154.188 78.8687Z" fill="white"/>
<path opacity="0.5" d="M38.9044 33.5296C39.3778 34.2206 39.8896 34.9542 40.4313 35.7134C41.7181 35.5409 43.0144 35.4498 44.3126 35.4404C47.755 35.36 51.1892 35.8118 54.4937 36.7797C53.5202 35.3925 52.41 34.1065 51.1796 32.941C50.6209 32.877 50.0536 32.8259 49.4735 32.8046C46.0742 32.6638 42.4231 33.2737 38.9044 33.5296Z" fill="white"/>
<path opacity="0.5" d="M0.142203 31.6743C0.0693712 31.7849 0.0257015 31.9121 0.015261 32.0441C0.0048204 32.1761 0.0279486 32.3086 0.0824904 32.4292C0.159264 32.57 0.28722 32.6766 0.363993 32.8174V32.8515C1.46757 32.419 2.47385 31.7708 3.32404 30.9449C3.15231 30.9751 2.97799 30.988 2.80369 30.9833C2.38715 30.9189 1.96684 30.8819 1.54545 30.8724C1.24427 30.9071 0.953687 31.0044 0.692412 31.1582C0.469263 31.2822 0.280251 31.4595 0.142203 31.6743Z" fill="white"/>
<path opacity="0.5" d="M72.8042 44.7172C72.53 45.6322 72.3864 46.5814 72.3777 47.5365C71.6103 47.861 70.8924 48.2917 70.2451 48.8161C68.9655 49.908 68.4665 51.1449 68.0016 52.3349L65.3188 59.2829C63.8558 59.1507 62.3801 58.9545 60.9086 58.7071C61.0195 58.6218 61.1304 58.5365 61.2455 58.4554C61.3921 58.3142 61.5224 58.1568 61.6337 57.9863C63.0582 56.2802 63.8558 54.5144 63.9582 52.8083C64.0307 51.6098 63.8771 50.2705 65.5107 49.2384C66.0102 48.9897 66.4906 48.7046 66.9481 48.3853C68.0442 47.4256 66.6111 46.4574 64.9136 46.2527C63.216 46.048 61.1815 46.1887 59.7271 45.7409C57.6201 45.0883 57.4879 43.395 58.2002 41.9022C58.5542 41.1771 59.0532 40.435 59.0106 39.7312C58.9423 38.8782 58.0552 38.2555 57.0016 37.7436C58.3153 37.556 60.2859 37.2873 62.5208 37.0271C62.9772 37.0304 63.4324 36.9803 63.8771 36.8778C65.7666 36.6773 67.7755 36.5025 69.6906 36.4001C69.7409 36.9075 69.6477 37.4189 69.4214 37.8759C69.1952 38.3329 68.8451 38.7171 68.4111 38.9848C66.8671 40.0426 63.9539 40.5416 63.0924 41.7615C62.5165 42.6145 63.2288 43.3737 64.2141 43.8685C65.66 44.6106 67.6988 45.003 69.9124 44.9604C70.88 44.9311 71.8453 44.85 72.8042 44.7172Z" fill="white"/>
<path opacity="0.5" d="M83.885 60.2724C83.7433 60.2567 83.6003 60.2567 83.4585 60.2724C83.2087 60.3034 82.9628 60.3605 82.7249 60.443C81.4609 60.1375 80.1787 59.9125 78.8862 59.7691C79.693 59.3907 80.5343 59.0908 81.3984 58.8734L83.885 60.2724Z" fill="white"/>
</g>
</svg>
