<svg width="1077" height="955" viewBox="0 0 1077 955" fill="none" xmlns="http://www.w3.org/2000/svg">
<path d="M741.912 435.968C782.658 433.793 799.48 456.149 856.185 491.042C898.626 517.203 963.006 522.832 1011.91 492.737C1037.75 476.551 1057.83 452.622 1069.28 424.359C1085.59 385.98 1073.82 374.53 1054.8 391.129C1011.33 429.06 957.601 437.919 900.289 402.803C844.831 368.773 783.777 349.2 733.117 380.415L741.912 435.968Z" fill="#37474F"/>
<path opacity="0.5" d="M1039.2 403.25C998.746 430.595 950.932 433.985 900.272 402.931C867.906 383.069 833.621 368.23 800.615 365.447C800.937 367.121 801.7 368.679 802.824 369.961C803.948 371.243 805.394 372.202 807.012 372.739C810.747 373.77 814.625 374.18 818.493 373.955C826.471 374.123 834.359 375.67 841.808 378.528C864.196 387.099 880.763 406.576 902.895 415.595C910.922 418.794 919.462 420.649 927.489 423.911C941.529 429.636 955.122 439.902 970.09 437.663C976.742 436.608 982.691 433.09 989.087 431.011C1001.88 426.821 1017.2 428.197 1027.69 419.625C1032.6 415.008 1036.52 409.436 1039.2 403.25Z" fill="#00D1FF"/>
<path opacity="0.7" d="M1069.28 424.359C1085.59 385.98 1073.82 374.53 1054.8 391.129C1011.3 429.06 957.601 437.919 900.289 402.803C844.831 368.773 783.777 349.2 733.117 380.415C763.213 363.656 799.065 363.976 830.631 374.274C846.588 379.383 862.046 385.935 876.814 393.848C884.202 397.813 891.43 402.067 898.626 406.64C902.4 408.783 906.11 411.054 909.947 413.037C913.785 415.02 917.719 417.003 921.781 418.634C937.996 425.381 955.39 428.838 972.953 428.804C990.54 428.438 1007.81 424.063 1023.45 416.011C1031.19 412.018 1038.55 407.318 1045.42 401.971C1048.97 399.476 1052.08 396.438 1055.4 393.72C1058.24 390.939 1061.48 388.59 1065 386.747C1068.48 385.052 1072.19 385.116 1073.89 388.283C1075.44 391.944 1075.95 395.961 1075.36 399.892C1074.29 408.256 1072.25 416.466 1069.28 424.359Z" fill="white"/>
<path d="M961.464 458.324C964.741 459.92 968.5 460.217 971.986 459.155C976.624 457.684 982.029 452.279 980.238 446.938C979.909 445.844 979.244 444.881 978.337 444.186C977.43 443.492 976.327 443.1 975.185 443.068C972.803 443.538 970.593 444.643 968.788 446.266C965.782 448.441 962.776 450.712 959.769 452.919C959.457 453.121 959.176 453.369 958.938 453.654C958.656 454.075 958.505 454.571 958.505 455.077C958.505 455.584 958.656 456.08 958.938 456.501C959.606 457.319 960.477 457.947 961.464 458.324ZM1018.42 435.52C1019.36 435.917 1020.39 436.06 1021.4 435.936C1023.03 435.987 1024.65 435.553 1026.04 434.687C1027.43 433.822 1028.53 432.565 1029.2 431.075C1029.35 430.736 1029.42 430.371 1029.42 430.003C1029.42 429.635 1029.35 429.271 1029.2 428.932C1028.4 427.685 1026.58 427.908 1025.17 428.292L1026.1 427.909C1023.45 428.299 1020.92 429.319 1018.74 430.883C1018.33 431.116 1017.97 431.433 1017.68 431.813C1017.4 432.192 1017.19 432.627 1017.08 433.09C1017.04 433.582 1017.15 434.074 1017.39 434.506C1017.63 434.938 1017.99 435.291 1018.42 435.52ZM857.17 406.928C858.079 408.849 859.149 410.689 860.368 412.429C862.806 415.891 865.787 418.936 869.195 421.448C871.387 423.052 873.746 424.414 876.231 425.51C878.081 426.159 880.078 426.27 881.988 425.83C882.357 425.813 882.717 425.715 883.044 425.542C883.479 425.25 883.805 424.823 883.971 424.327C884.334 423.344 884.49 422.297 884.429 421.251C884.368 420.206 884.093 419.184 883.619 418.25C882.675 416.374 881.457 414.65 880.005 413.133C875.332 407.23 869.827 402.038 863.662 397.717C861.935 396.598 857.969 394.519 856.178 396.95C855.577 397.909 855.256 399.016 855.251 400.148C854.931 401.526 855.137 402.974 855.827 404.21C856.328 405.088 856.776 405.996 857.17 406.928ZM1076.38 390.073C1073.9 389.818 1071.39 390.135 1069.05 391.001C1063.2 393.551 1058.24 397.795 1054.82 403.186C1049.29 410.926 1045.23 419.721 1039.25 427.301C1033.26 434.881 1025.01 441.245 1015.48 441.693C1010.11 441.853 1004.58 440.158 999.491 441.693C990.216 444.507 986.89 456.085 979.055 461.778C974.99 464.488 970.219 465.944 965.334 465.967C960.03 466.095 954.762 465.056 949.904 462.923C945.046 460.789 940.717 457.614 937.222 453.622C932.712 448.249 929.578 441.437 923.597 437.631C911.508 429.795 895.485 438.399 881.189 436.608C866.892 434.817 856.306 422.887 846.008 412.749C835.71 402.61 821.925 392.824 808.045 396.758C805.087 397.446 802.41 399.019 800.369 401.267C798.834 403.058 797.907 405.265 796.531 407.216C794.575 409.952 791.751 411.945 788.519 412.873C785.286 413.801 781.835 413.608 778.726 412.326C775.617 411.043 773.033 408.747 771.394 405.811C769.755 402.874 769.157 399.469 769.698 396.15C760.149 396.862 750.698 398.544 741.49 401.171C739.987 401.619 738.291 402.035 736.564 402.546L741.842 436.096C782.651 433.889 799.41 456.309 856.146 491.138C898.587 517.299 962.967 522.896 1011.87 492.833C1037.74 476.615 1057.84 452.655 1069.31 424.358C1076.31 407.952 1078.07 396.534 1076.38 390.073ZM851.349 439.39C850.56 439.827 849.659 440.021 848.76 439.947C847.86 439.873 847.003 439.534 846.296 438.974C844.934 437.836 843.739 436.512 842.746 435.041C841.015 433.087 839.037 431.366 836.861 429.923C833.639 428.399 830.602 426.51 827.81 424.294C826.8 423.326 826.052 422.116 825.638 420.779C825.224 419.442 825.157 418.021 825.443 416.651C826.307 413.74 829.089 412.973 831.84 412.557C834.369 412.232 836.939 412.619 839.26 413.676C841.603 414.759 843.711 416.291 845.464 418.186C847.545 420.343 849.272 422.814 850.581 425.51C851.873 428.154 852.706 430.998 853.044 433.921C853.267 434.901 853.227 435.923 852.929 436.883C852.632 437.843 852.087 438.708 851.349 439.39ZM925.772 467.151C920.943 463.953 914.706 452.151 918.384 447.226C920.495 444.315 922.478 448.601 924.94 450.968C928.139 454.166 932.328 458.388 932.84 461.778C933.704 467.758 928.778 469.134 925.772 467.151ZM945.889 475.082C945.361 475.726 944.669 476.214 943.887 476.495C943.104 476.777 942.26 476.841 941.443 476.682C940.825 476.596 940.222 476.424 939.652 476.17C938.294 475.73 937.151 474.794 936.454 473.547C935.991 472.732 935.791 471.793 935.883 470.86C935.974 469.926 936.353 469.044 936.966 468.334C937.825 467.451 938.963 466.893 940.187 466.753C941.411 466.613 942.646 466.9 943.682 467.567C944.942 468.299 945.873 469.486 946.284 470.885C946.694 472.283 946.553 473.785 945.889 475.082ZM1022.65 450.04C1018.87 456.437 999.203 458.452 998.532 450.968C997.86 443.484 1008.67 447.77 1013.69 447.386C1018.71 447.002 1026.39 443.74 1022.65 449.944V450.04Z" fill="#E0E0E0"/>
<path opacity="0.1" d="M1076.7 399.38C1072.32 413.804 1055.31 457.94 1006.76 480.232C948.262 507.129 882.315 500.381 844.608 459.635C809.139 421.256 844.767 405.265 860.759 381.982C816.911 362.601 771.944 356.62 733.117 380.575L741.912 435.968C782.658 433.793 799.481 456.149 856.185 491.042C898.626 517.203 963.006 522.832 1011.91 492.737C1037.75 476.551 1057.83 452.622 1069.28 424.359C1072.91 416.42 1075.41 408.012 1076.7 399.38Z" fill="black"/>
<path opacity="0.5" d="M1075.23 407.152C1065.35 422.248 1055.24 437.119 1040.53 447.226C1016.64 463.633 985.65 464.145 956.674 464.624C951.78 464.624 945.608 465.744 944.328 470.477C942.41 477.673 954.499 483.27 952.068 490.37C950.629 494.496 945.288 495.391 940.906 495.359C920.624 495.205 900.719 489.865 883.082 479.848C880.78 478.569 878.381 477.673 876.11 476.458C871.899 473.604 867.94 470.394 864.277 466.863C858.423 461.886 851.816 457.871 844.704 454.966C837.028 452.151 828.712 451.416 821.229 447.802C813.745 444.188 807.54 436.128 809.811 428.26C811.051 424.904 813.055 421.882 815.664 419.433C827.593 406.64 841.249 394.775 849.949 379.551C850.269 379.008 850.492 378.432 850.812 377.888C810.131 361.897 769.001 358.443 733.117 380.607L741.912 436C782.658 433.825 799.481 456.181 856.185 491.074C898.626 517.235 963.006 522.864 1011.91 492.769C1037.76 476.574 1057.84 452.634 1069.28 424.359C1071.72 418.788 1073.7 413.035 1075.23 407.152Z" fill="#00D1FF"/>
<path d="M964.221 146.464C963.869 150.27 963.357 154.108 962.941 158.042C962.238 163.479 961.406 169.108 960.447 174.737C959.263 181.901 957.888 189.225 956.385 196.613C940.01 275.929 890.277 365.096 783.105 431.907C675.932 498.718 513.782 528.653 446.395 545.892C407.728 555.774 383.773 571.254 367.686 589.324C352.623 606.274 344.595 625.528 337.943 644.685C337.928 644.715 337.921 644.748 337.921 644.781C337.921 644.814 337.928 644.847 337.943 644.877C337.431 646.156 336.983 647.436 336.567 648.683C336.5 648.827 336.446 648.977 336.408 649.131C333.438 657.917 331.433 667 330.427 676.22C328.936 686.888 330.033 697.759 333.625 707.914C358.347 750.163 422.472 720.707 479.049 699.887C535.625 679.066 558.077 712.328 592.49 719.908C626.903 727.487 623.833 730.909 610.56 747.156C593.865 767.689 571.957 781.505 538.568 790.524C511.063 797.944 476.234 799.799 424.103 783.616C458.676 809.202 456.085 867.026 455.446 897.186C455.108 910.6 453.448 923.948 450.488 937.035C446.843 957.216 434.497 961.566 432.61 942.984C431.491 932.686 423.751 916.759 413.613 906.876C394.423 888.23 363.017 878.604 340.054 844.607C327.261 825.801 324.062 806.548 322.431 789.661C320.8 772.774 320.704 758.574 314.308 749.459C277.784 714.279 173.266 658.214 178.127 526.031C183.212 385.468 236.207 274.394 411.598 151.485C616.253 8.10868 813.232 -17.765 895.97 9.83573C936.524 23.3643 956.449 51.061 962.941 88.3524C965.986 107.577 966.417 127.125 964.221 146.464Z" fill="#455A64"/>
<path d="M336.508 443.069C409.587 351.023 392.669 315.139 366.411 294.287C366.411 294.287 358.032 351.375 194.538 417.099C184.664 452.604 179.197 489.19 178.259 526.031C174.869 618.364 224.826 673.533 267.81 710.409L283.129 705.228C249.868 684.471 197.065 622.425 206.66 586.349C216.254 550.273 263.46 535.114 336.508 443.069Z" fill="#37474F"/>
<path opacity="0.5" d="M411.733 151.486C283.996 241.036 221.246 324.19 194.541 416.939C216.257 381.566 244.913 349.36 267.365 314.116C285.595 285.556 300.211 254.181 323.878 229.97C364.911 188.073 426.221 174.225 475.634 142.658C512.094 119.407 542.221 86.3376 581.335 67.8838C637.24 41.4983 685.054 51.0291 741.887 26.7225C758.645 19.5585 768.208 5.29434 810.073 0.177162C710.192 3.69522 563.041 45.4002 411.733 151.486Z" fill="#00D1FF"/>
<path opacity="0.5" d="M411.727 151.486C236.304 274.426 183.341 385.468 178.256 525.999C178.032 532.875 178.256 539.463 178.448 545.924C179.114 504.786 185.233 463.919 196.646 424.391C214.811 363.816 248.969 306.952 298.989 268.317C318.178 253.445 339.702 241.388 358.444 225.844C391.482 198.404 414.893 161.368 444.029 129.897C433.251 136.742 422.505 143.906 411.727 151.486Z" fill="#00D1FF"/>
<path d="M964.214 146.464C963.862 150.27 963.351 154.108 962.935 158.042C962.231 163.479 961.4 169.012 960.44 174.737C959.257 181.901 957.882 189.225 956.379 196.613C940.004 275.929 890.271 365.096 783.098 431.907C675.926 498.718 513.775 528.653 446.388 545.892C407.722 555.774 383.767 571.254 367.68 589.324C352.616 606.274 344.589 625.528 337.936 644.685C337.922 644.715 337.915 644.748 337.915 644.781C337.915 644.814 337.922 644.847 337.936 644.877C337.425 646.156 336.977 647.436 336.561 648.683C336.494 648.827 336.44 648.977 336.401 649.131C319.61 692.211 297.223 705.004 257.533 659.941C217.843 614.878 214.357 495.264 289.643 401.971C364.929 308.679 449.874 291.344 528.839 252.23C592.132 220.887 602.878 185.803 620.244 153.085C636.012 123.693 668.953 80.4848 784.634 43.7051C914.961 2.28797 953.212 44.1208 962.935 88.1605C965.916 107.455 966.346 127.058 964.214 146.464Z" fill="#EBEBEB"/>
<path d="M964.214 146.464C963.862 150.27 963.351 154.108 962.935 158.042C962.231 163.479 961.4 169.012 960.44 174.737C959.257 181.901 957.882 189.225 956.379 196.613C940.004 275.929 890.271 365.096 783.098 431.907C675.926 498.718 513.775 528.653 446.388 545.892C407.722 555.774 383.767 571.254 367.68 589.324C352.616 606.274 344.589 625.528 337.936 644.685C337.922 644.715 337.915 644.748 337.915 644.781C337.915 644.814 337.922 644.847 337.936 644.877C337.425 646.156 336.977 647.436 336.561 648.683C336.494 648.827 336.44 648.977 336.401 649.131C319.61 692.211 297.223 705.004 257.533 659.941C217.843 614.878 214.357 495.264 289.643 401.971C364.929 308.679 449.874 291.344 528.839 252.23C592.132 220.887 602.878 185.803 620.244 153.085C636.012 123.693 668.953 80.4848 784.634 43.7051C914.961 2.28797 953.212 44.1208 962.935 88.1605C965.916 107.455 966.346 127.058 964.214 146.464Z" fill="#EBEBEB"/>
<path d="M930.561 54.0032C931.056 78.973 928.793 103.921 923.812 128.394C917.623 153.797 907.593 178.106 894.069 200.482C885.722 214.81 876.607 228.691 867.012 242.059C857.548 255.872 847.263 269.105 836.213 281.685C814.685 304.854 790.78 325.693 764.892 343.859C738.56 362.921 710.863 380.024 682.026 395.031C652.829 410.09 622.386 422.599 591.036 432.418C556.655 443.324 521.763 452.503 487.67 464.401C456.135 475.543 425.556 489.223 396.232 505.306C368.535 520.37 341.862 538.248 323.312 564.121C314.207 575.959 307.187 589.262 302.556 603.46C299.275 615.469 298.127 627.961 299.166 640.367C299.645 648.491 301.117 656.582 302.364 664.578C302.652 666.497 304.635 666.209 304.443 664.29C302.748 650.03 302.619 635.626 304.059 621.338C306.01 608.144 310.729 595.511 317.907 584.27C326.4 570.395 336.946 557.887 349.186 547.171C361.434 536.706 374.612 527.382 388.556 519.314C402.596 511.031 417.34 503.707 431.956 496.735C446.572 489.763 462.276 482.662 477.947 476.778C512.488 463.793 548.308 454.39 583.489 443.676C615.243 434.282 646.16 422.258 675.918 407.728C704.83 393.237 732.691 376.736 759.295 358.347C786.036 340.275 811.008 319.714 833.878 296.941C844.47 286.132 854.261 274.566 863.174 262.336C873.728 247.976 883.963 233.296 893.269 218.073C907.679 195.204 918.74 170.39 926.115 144.385C932.146 121.261 934.573 97.3448 933.311 73.4804C933.023 67.084 932.448 60.3677 931.904 53.8113C931.904 52.6599 930.561 52.9798 930.561 54.0032Z" fill="#E0E0E0"/>
<path d="M894.154 41.2424C894.154 72.8409 891.275 104.344 881.521 134.535C871.254 166.517 854.624 195.717 835.53 223.094C800.898 272.836 756.875 315.328 705.938 348.177C678.252 365.99 648.93 381.122 618.37 393.368C587.635 405.681 556.165 416.011 524.918 426.949C461.497 449.113 396.093 471.725 344.569 516.5C325.796 532.811 307.726 551.968 295.509 573.748C281.439 598.519 277.748 627.851 285.242 655.335C287.659 664.021 290.76 672.501 294.517 680.697C295.285 682.328 296.468 680.345 295.988 679.194C288.907 663.053 285.164 645.647 284.986 628.022C285.228 614.261 288.298 600.697 294.005 588.172C304.336 565.273 322.182 545.764 340.476 528.877C390.304 482.95 454.461 459.156 517.338 436.928C548.745 425.798 580.471 415.436 611.59 403.474C641.648 392.043 670.605 377.902 698.102 361.226C749.5 329.997 794.41 289.17 830.381 240.972C850.498 213.883 868.28 184.875 880.242 153.245C891.099 124.854 896.597 94.6968 896.456 64.3016C896.456 56.466 895.945 48.6942 895.177 40.8906C895.177 39.6752 893.994 40.3149 894.026 41.2424H894.154Z" fill="#E0E0E0"/>
<path d="M862.227 43.449C860.546 69.7847 855.495 95.7961 847.195 120.846C838.302 146.759 826.227 171.468 811.247 194.406C794.918 219.369 775.69 242.31 753.966 262.752C729.966 285.038 703.816 304.89 675.898 322.015C648.473 339.252 620.056 354.854 590.793 368.741C565.207 380.895 539.173 391.801 512.948 402.419C485.315 413.581 457.522 424.327 430.625 437.216C400.513 451.466 371.914 468.717 345.264 488.707C321.469 506.745 299.05 528.301 282.707 553.407C266.364 578.513 258.912 610.56 265.948 639.76C267.723 647.118 270.375 654.238 273.848 660.964C274.711 662.627 275.895 660.612 275.351 659.429C262.014 630.837 265.276 595.048 279.892 567.544C287.18 554.602 296.042 542.613 306.278 531.851C316.276 520.893 327.096 510.715 338.644 501.404C365.024 480.428 393.577 462.34 423.813 447.45C450.486 434.081 478.183 423.047 505.879 411.981C561.209 389.85 615.707 366.087 666.847 335.224C695.521 318.46 722.615 299.127 747.794 277.464C770 257.888 789.894 235.837 807.089 211.74C838.272 167.956 859.508 116.785 864.178 62.9902C864.721 56.5938 864.913 50.3572 864.913 44.0247C864.913 42.3936 862.387 40.8265 862.227 43.2252V43.449Z" fill="#E0E0E0"/>
<path d="M826.024 55.1227C818.284 111.412 798.583 166.261 762.955 210.973C747.846 229.549 730.521 246.208 711.367 260.577C691.154 276.089 670.238 290.832 648.874 304.713C599.269 336.983 544.579 359.531 490.21 382.462C461.425 394.647 432.641 407.248 404.849 421.832C377.448 435.739 351.184 451.779 326.3 469.806C303.055 486.664 283.696 508.312 269.531 533.291C255.459 559.036 247.144 588.844 249.702 618.3C250.305 625.709 251.655 633.038 253.732 640.176C254.18 641.743 255.523 640.783 255.267 639.504C244.329 579.089 275.448 519.826 321.439 482.183C344.466 463.345 370.788 448.122 396.821 433.826C424.646 418.538 453.526 405.329 482.726 392.856C537.351 369.541 593.129 347.825 643.533 315.939C665.281 302.186 686.453 287.41 706.922 271.803C724.928 258.581 741.557 243.581 756.558 227.028C793.658 184.683 815.438 131.752 824.233 76.4869C825.352 69.3548 826.184 62.1588 826.856 54.9948C826.856 54.2592 826.248 54.579 826.152 54.9948L826.024 55.1227Z" fill="#E0E0E0"/>
<path d="M782.63 64.4617C778.871 107.863 763.76 149.512 738.814 185.227C712.3 223.254 676.32 253.829 637.75 279.063C592.271 308.839 542.442 330.491 493.093 352.878C466.228 365.064 439.363 377.313 412.754 390.138C388.447 401.843 363.597 413.517 340.922 428.261C297.426 456.533 258.471 499.038 243.855 549.794C242.128 556.087 240.877 562.502 240.113 568.983C240.113 570.23 241.648 571.669 242.064 569.942C248.081 544.035 259.133 519.563 274.59 497.918C290.499 475.948 309.853 456.692 331.903 440.894C353.587 425.19 377.765 413.261 401.72 401.46C428.137 388.443 454.875 376.129 481.676 363.976C531.344 341.365 581.908 320.128 628.507 291.472C668.549 266.814 706.416 237.102 735.136 199.587C748.193 182.73 758.948 164.209 767.118 144.513C775.189 124.182 780.388 102.826 782.566 81.0605C783.141 75.5595 783.301 69.9626 783.461 64.4297C783.461 63.5981 782.598 63.7261 782.534 64.4297L782.63 64.4617Z" fill="#E0E0E0"/>
<path d="M735.936 83.8747C731.984 111.564 722.171 138.092 707.152 161.688C688.219 191.495 662.377 216.058 634.361 237.358C596.43 266.142 554.661 289.361 511.644 309.638C468.628 329.915 425.292 347.665 384.355 370.948C365.445 381.52 347.376 393.527 330.304 406.864C313.645 419.755 298.611 434.618 285.529 451.128C282.267 455.392 279.165 459.731 276.222 464.145C275.295 465.552 277.598 469.102 278.877 467.343C292.176 450.07 307.271 434.256 323.908 420.169C340.488 406.338 358.133 393.837 376.679 382.782C416.913 358.699 460.217 340.405 502.689 320.768C524.725 310.565 546.633 300.043 567.837 288.178C588.701 276.53 608.893 263.717 628.316 249.799C657.644 228.691 685.276 204.32 705.745 174.289C713.988 162.161 720.803 149.122 726.054 135.43C730.933 122.066 734.291 108.194 736.064 94.0771C736.544 90.6869 736.928 87.2648 737.28 83.8427C737.28 82.5634 736.096 82.5314 735.936 83.8427V83.8747Z" fill="#E0E0E0"/>
<path d="M676.947 117.936C673.219 131.557 668.527 144.895 662.907 157.85C658.038 169.357 651.73 180.2 644.134 190.12C635.828 200.743 626.498 210.524 616.277 219.32C604.425 229.272 591.661 238.085 578.154 245.642C551.481 261.185 523.784 274.841 495.863 287.826C467.943 300.811 438.615 313.412 410.663 327.772C396.868 334.808 383.371 342.409 370.173 350.576C356.634 358.707 343.662 367.747 331.346 377.633C328.436 379.999 325.558 382.334 322.711 384.765C322.135 385.276 322.295 387.163 323.255 386.556C349.407 368.784 376.434 352.335 404.234 337.271C432.283 322.655 461.387 309.958 490.107 296.749C518.027 283.956 545.756 270.652 572.493 255.524C586.372 248.064 599.634 239.509 612.151 229.938C623.018 221.193 633.021 211.425 642.023 200.77C650.098 191.152 656.843 180.492 662.076 169.076C667.782 156.26 672.134 142.882 675.061 129.162C675.892 125.516 676.724 121.87 677.491 118.224C677.491 117.584 677.011 117.424 676.852 118.224L676.947 117.936Z" fill="#E0E0E0"/>
<path d="M955.745 96.9237C953.192 153.873 935.41 209.096 904.253 256.835C890.105 278.314 873.98 298.422 856.088 316.898C836.882 337.344 815.631 355.766 792.667 371.876C741.719 406.896 683.095 429.188 624.856 448.633C560.891 470.157 495.999 489.219 433.505 514.965C417.66 520.919 402.25 527.972 387.387 536.073C373.903 544.148 361.437 553.812 350.255 564.857C340.021 574.222 331.55 585.347 325.245 597.703C318.897 610.699 315.221 624.837 314.435 639.28C314.327 645.547 314.798 651.81 315.842 657.99C316.034 659.429 317.409 658.629 317.217 657.446C316.571 650.653 316.905 643.803 318.209 637.105C319.331 629.846 321.119 622.705 323.55 615.773C327.803 602.969 334.614 591.163 343.571 581.072C354.273 569.395 366.281 558.985 379.359 550.049C393.53 541.103 408.523 533.531 424.134 527.438C486.628 500.892 551.616 481.159 616.028 459.891C674.588 440.702 733.372 419.114 785.535 385.756C809.703 370.211 832.087 352.053 852.282 331.61C870.568 313.599 887.221 294.002 902.046 273.05C916.79 252.03 928.855 229.254 937.963 205.248C948.132 177.873 954.241 149.158 956.097 120.015C956.576 112.275 956.736 104.535 956.832 96.8277C956.832 95.8363 955.745 96.0601 955.713 96.8277L955.745 96.9237Z" fill="#E0E0E0"/>
<path d="M844.476 362.377C809.902 393.847 771.159 420.407 729.34 441.309C708.205 451.836 686.349 460.846 663.936 468.271C640.781 475.946 617.05 481.895 593.575 488.515C568.788 495.488 544.034 502.62 519.248 509.56C500.954 514.709 482.564 519.538 464.27 524.623C436.637 532.299 409.037 541.798 385.114 557.949C358.153 576.115 337.908 602.724 331.479 635.122C330.567 640.008 329.926 644.941 329.561 649.898C329.561 651.21 331.384 652.681 331.703 650.794C334.284 633.364 340.33 616.627 349.486 601.573C357.957 588.4 368.802 576.916 381.468 567.704C404.879 550.401 432.64 539.975 460.368 531.915C476.072 527.374 491.935 523.376 507.67 519.122C532.424 512.278 557.115 505.21 581.805 498.174C605.536 491.394 629.491 485.381 653.094 478.057C675.133 471.151 696.621 462.598 717.378 452.471C759.199 432.517 797.854 406.513 832.099 375.298C836.385 371.332 840.606 367.27 844.892 363.177C845.148 362.889 845.084 361.961 844.636 362.377H844.476Z" fill="#E0E0E0"/>
<path opacity="0.05" d="M889.974 316.834C881.947 313.38 880.699 303.018 900.464 268.861C892.565 280.822 852.939 294.638 868.738 247.209C840.753 290.481 791.725 329.051 782.993 320.512C775.19 312.9 776.597 298.316 800.328 271.771C771.96 298.956 702.558 350.799 677.164 341.94C648.028 331.802 659.989 311.333 682.121 286.067C682.121 286.067 629.894 320.48 623.785 308.743C617.677 297.005 660.405 269.372 660.405 269.372C660.405 269.372 645.661 277.144 623.785 291.12C601.909 305.097 563.467 318.817 538.776 306.024C516.613 294.574 536.41 279.255 557.614 260.545C542.358 268.988 505.803 280.566 502.285 274.809C499.982 271.035 515.877 260.609 533.275 250.023C531.772 250.823 530.397 251.59 528.83 252.358C449.865 291.472 364.856 308.934 289.634 402.099C214.412 495.263 217.674 614.877 257.46 660.036C297.246 705.195 319.537 692.307 336.328 649.226C336.367 649.072 336.421 648.922 336.488 648.779C336.904 647.531 337.352 646.252 337.863 644.973C337.849 644.943 337.842 644.91 337.842 644.877C337.842 644.844 337.849 644.811 337.863 644.781C344.516 625.591 352.543 606.402 367.607 589.419C383.598 571.349 407.649 555.87 446.315 545.987C513.702 528.685 675.885 498.781 783.025 431.938C843.792 393.975 886.232 348.784 914.473 302.282C905.965 309.958 894.772 318.817 889.974 316.834Z" fill="black"/>
<path opacity="0.1" d="M289.638 401.971C254.996 444.586 234.275 496.811 230.279 551.584C252.667 529.9 289.159 502.588 336.493 442.845C386.929 379.328 394.509 342.548 385.713 319.009C348.849 340.506 316.277 368.632 289.638 401.971Z" fill="black"/>
<path opacity="0.25" d="M353.922 258.05C330.607 258.85 308.955 280.438 309.883 303.561C300.864 288.721 315.48 254.852 353.922 258.05Z" fill="black"/>
<path opacity="0.25" d="M316.501 316.546C314.416 310.975 313.836 304.952 314.819 299.085C315.801 293.218 318.312 287.713 322.097 283.125C326.941 277.757 333.354 274.053 340.423 272.539C340.423 272.539 329.581 276.92 321.426 292.048C317.234 299.487 315.509 308.065 316.501 316.546Z" fill="black"/>
<path d="M316.505 316.546C317.049 331.994 294.117 357.292 240.771 378.08C187.424 398.869 145.336 420.872 96.5625 472.716C46.638 525.806 15.2634 583.151 4.5493 624.024C-9.45896 677.435 11.3296 662.147 46.1263 644.013C107.436 612.031 184.066 565.72 275.472 480.903C325.972 433.953 359.073 392.376 373.466 357.196C386.003 326.525 381.109 302.026 366.397 294.254C355.875 288.37 315.929 293.711 316.505 316.546Z" fill="#455A64"/>
<path d="M344.666 370.852C335.072 374.05 324.421 376.673 318.569 385.564C314.027 392.472 315.594 399.38 312.172 406.417C311.501 407.504 310.765 408.687 310.029 409.935C307.551 413.683 303.92 416.524 299.686 418.03C295.452 419.535 290.843 419.624 286.554 418.282C282.237 417.522 277.812 417.631 273.538 418.602C263.367 419.785 264.519 427.269 267.813 434.593C268.997 438.266 269.506 442.124 269.316 445.979C269.316 450.936 267.173 452.567 264.327 456.437C261.824 459.126 258.948 461.441 255.787 463.313C248.655 466.927 246.193 463.313 242.355 458.484C241.676 457.316 240.657 456.384 239.434 455.813C238.21 455.241 236.841 455.057 235.511 455.286C229.914 456.181 227.419 459.763 221.63 463.025C209.349 470.797 191.567 473.643 185.33 488.227C182.74 494.304 192.622 493.121 196.012 494.816C205.959 500.573 194.381 512.182 188.401 516.5C182.42 520.817 177.303 526.702 170.395 528.781C163.486 530.86 157.825 527.406 151.461 525.967C145.786 524.7 139.84 525.735 134.926 528.845C130.311 531.14 126.572 534.88 124.276 539.495C113.178 558.684 101.888 559.676 87.7522 567.863C56.8892 586.157 54.7784 633.395 17.6789 643.566C14.9179 644.636 11.9315 644.992 8.9963 644.6C6.06113 644.209 3.27225 643.083 0.888167 641.327C-3.8772 673.501 15.7919 659.908 46.0472 644.077C107.357 612.095 183.987 565.784 275.393 480.967C325.989 433.953 359.09 392.376 373.482 357.196C375.588 352.07 377.288 346.788 378.568 341.396C370.687 354.57 358.811 364.888 344.666 370.852ZM97.123 589.931C95.3235 591.762 93.3038 593.363 91.1103 594.697C89.8543 595.672 88.3754 596.321 86.8066 596.583C85.2379 596.845 83.6285 596.714 82.1233 596.2C81.4691 595.927 80.9353 595.427 80.6201 594.792C80.3933 593.94 80.4725 593.034 80.844 592.234C81.9449 588.386 83.7091 584.761 86.0571 581.52C87.0885 580.211 88.2936 579.049 89.6391 578.066C90.8255 577.228 92.1296 576.57 93.509 576.115C94.138 575.97 94.7828 575.906 95.428 575.923C96.1967 575.859 96.9703 575.957 97.6987 576.211C97.985 576.373 98.2531 576.566 98.4983 576.786C99.3563 577.397 100.05 578.209 100.519 579.152C100.988 580.095 101.216 581.139 101.185 582.191C100.812 585.178 99.3685 587.927 97.123 589.931ZM159.457 542.501C158.984 544.577 157.981 546.494 156.546 548.066C155.116 549.612 153.77 551.235 152.516 552.928C151.589 554.335 150.917 555.902 149.958 557.245C148.03 559.783 145.441 561.742 142.474 562.906C139.965 564.063 137.241 564.684 134.478 564.729C131.692 564.761 128.989 563.784 126.867 561.979C126.419 561.642 126.112 561.153 126.003 560.603C126.007 560.169 126.14 559.746 126.387 559.388C127.684 557.612 129.248 556.047 131.024 554.751C134.01 551.771 136.475 548.312 138.316 544.516C139.116 542.907 140.08 541.385 141.195 539.975C143.334 537.54 146.317 536.009 149.542 535.689C150.7 535.545 151.871 535.545 153.028 535.689C153.689 535.755 154.342 535.884 154.979 536.073C156.066 536.428 157.038 537.069 157.793 537.928L158.049 538.216C158.49 538.762 158.856 539.364 159.137 540.007C159.273 540.374 159.39 540.747 159.489 541.126C159.566 541.582 159.555 542.049 159.457 542.501ZM237.302 473.324C236.309 476.797 234.345 479.915 231.641 482.311C228.869 484.711 225.588 486.45 222.046 487.396C219.979 488.044 217.812 488.315 215.65 488.195C213.489 488.073 211.421 487.279 209.733 485.925C209.264 485.586 208.874 485.151 208.587 484.649C208.3 484.147 208.124 483.59 208.07 483.014C208.149 482.3 208.393 481.614 208.781 481.009C209.17 480.405 209.692 479.898 210.308 479.528C212.844 477.636 215.619 476.088 218.56 474.923C219.672 474.539 220.743 474.047 221.758 473.452C223.291 472.323 224.594 470.912 225.596 469.294C226.606 467.702 227.821 466.25 229.21 464.976L229.562 464.72C230.519 464.048 231.61 463.589 232.76 463.377C233.113 463.269 233.487 463.241 233.852 463.296C234.217 463.352 234.566 463.489 234.871 463.697C235.808 464.341 236.54 465.24 236.982 466.287C237.453 467.378 237.693 468.554 237.685 469.742C237.733 470.948 237.604 472.155 237.302 473.324ZM339.645 388.155C338.877 388.538 338.046 388.762 337.278 389.082C334.08 390.425 331.873 393.72 328.515 394.711C327.969 394.92 327.374 394.962 326.804 394.831C326.234 394.699 325.717 394.402 325.317 393.975C325.132 393.563 325.036 393.116 325.036 392.664C325.036 392.212 325.132 391.765 325.317 391.353C325.76 389.917 326.441 388.566 327.332 387.355C328.498 385.62 330.127 384.246 332.033 383.389C333.756 382.607 335.683 382.394 337.534 382.782C338.474 382.924 339.369 383.273 340.157 383.805C340.553 384.074 340.869 384.444 341.072 384.878C341.274 385.311 341.356 385.792 341.308 386.268C341.22 386.664 341.049 387.036 340.806 387.362C340.564 387.687 340.255 387.957 339.901 388.155H339.645ZM304.464 407.12C307.471 403.602 308.558 396.278 304.784 393.208C297.62 390.585 298.836 406.001 298.004 410.19C299.667 413.261 303.633 408.815 304.72 407.12H304.464ZM333.664 361.993C329.155 361.705 326.884 365.191 324.453 368.39C325.477 374.53 343.099 363.336 333.888 361.993H333.664ZM213.027 459.923C217.185 458.036 220.479 455.222 215.458 453.015C213.578 452.423 211.566 452.393 209.669 452.927C207.772 453.461 206.071 454.536 204.776 456.021C201.641 459.539 208.773 461.778 213.027 459.923ZM351.638 358.411C356.756 355.213 364.239 344.435 355.061 341.94C347.449 340.725 347.065 350.767 342.268 354.349C334.88 363.368 346.649 361.385 351.638 358.411ZM257.93 454.934C264.327 452.119 263.367 438.463 262.184 434.561C262.014 433.663 261.592 432.832 260.969 432.164C260.345 431.496 259.544 431.019 258.66 430.787C257.776 430.556 256.844 430.581 255.973 430.858C255.102 431.136 254.328 431.654 253.74 432.354C248.943 437.248 254.956 443.58 255.148 449.081C255.5 451.192 254.764 455.254 257.93 454.934ZM41.3458 605.603C33.9259 603.46 35.2372 610.848 34.7255 615.581C34.7255 617.66 33.4142 619.611 33.6701 621.626C39.4269 625.495 47.1346 608.929 41.3458 605.603ZM43.2008 601.797C49.7892 602.244 51.7081 592.937 56.1536 589.355C58.3924 586.157 62.5501 584.142 63.1258 580.081C63.3428 578.884 63.2341 577.651 62.811 576.511C62.388 575.371 61.6661 574.366 60.7211 573.601C59.776 572.836 58.6426 572.339 57.4395 572.162C56.2365 571.985 55.008 572.136 53.8829 572.597C47.0067 573.78 36.7084 597.511 43.2008 601.797ZM136.973 517.299C145.608 515.252 153.764 519.314 162.559 518.898C167.132 518.898 173.113 517.875 175.352 513.365C178.358 499.165 153.7 503.163 146.216 506.969C143.05 507.865 129.905 514.645 136.973 517.299ZM177.527 484.294C181.972 482.982 182.868 477.897 186.066 475.274C188.369 472.588 195.053 469.166 191.471 465.264C185.97 460.339 173.081 468.462 171.226 474.603C168.572 479.208 171.034 487.971 177.527 484.294Z" fill="#EBEBEB"/>
<path opacity="0.5" d="M201.081 544.357C186.661 551.441 171.686 557.335 156.305 561.979C146.167 565.177 135.709 567.608 126.594 572.949C115.496 579.345 107.053 589.644 96.4985 596.968C81.6619 607.215 63.4735 611.413 45.6466 608.705C41.5787 608.423 37.7553 606.659 34.9005 603.748C32.8543 600.656 31.9704 596.939 32.4059 593.258C33.4613 571.286 50.7638 553.216 69.9212 542.406C73.0217 540.983 75.7728 538.898 77.9807 536.297C81.4348 531.436 80.2515 524.879 79.6118 518.963C78.6548 513.471 79.2988 507.82 81.4668 502.684C82.597 500.151 84.4976 498.039 86.898 496.649C89.2984 495.26 92.0761 494.663 94.8354 494.944C97.8724 495.914 100.807 497.178 103.599 498.718C115.528 503.451 128.673 492.993 133.214 481C137.756 469.006 136.828 455.702 139.291 443.133C140.223 438.669 141.594 434.309 143.385 430.116C126.614 442.982 110.951 457.232 96.5625 472.716C46.638 525.807 15.2634 583.151 4.5493 624.025C-9.45896 677.435 11.3296 662.148 46.1263 644.014C100.749 615.658 152.622 582.296 201.081 544.357Z" fill="#00D1FF"/>
<path d="M316.484 316.546C316.646 322.442 314.921 328.235 311.558 333.081C308.358 338.025 304.614 342.595 300.396 346.706C291.725 354.574 282.212 361.46 272.028 367.238C261.937 373.089 251.429 378.188 240.589 382.494C230.035 386.748 219.481 391.161 209.151 396.022C188.427 405.397 168.565 416.569 149.792 429.412C147.745 430.883 145.634 432.322 143.587 433.762C143.347 433.983 143.09 434.187 142.819 434.369C126.735 446.347 111.288 459.157 96.541 472.748C103.865 463.825 111.637 455.286 119.824 447.162C128.118 439.087 136.84 431.464 145.954 424.327C164.343 410.016 184.352 397.918 205.569 388.283C216.187 383.517 226.837 379.072 237.551 374.978C237.906 374.875 238.249 374.736 238.575 374.562C248.873 370.724 258.915 366.375 268.798 361.545C279 356.586 288.648 350.561 297.582 343.571C306.089 336.567 315.14 328.22 316.484 316.546Z" fill="#37474F"/>
<path opacity="0.7" d="M237.705 374.978C204.891 389.722 176.939 403.09 142.75 431.683C108.561 460.275 92.7933 480.967 70.9814 509.144C48.4931 537.234 29.8535 568.2 15.556 601.221C12.1281 609.48 9.17038 617.926 6.69691 626.519C3.96588 634.921 2.521 643.687 2.41127 652.521C2.60317 656.774 4.45814 659.653 8.80774 659.237C13.1359 658.604 17.3486 657.344 21.3128 655.495C29.5963 651.913 37.6878 647.755 45.9392 643.981C11.1744 662.147 -9.51813 677.467 4.3622 624.056C15.1083 583.183 46.4509 525.775 96.3434 472.684C103.667 463.761 111.439 455.222 119.627 447.098C127.92 439.023 136.643 431.4 145.756 424.263C164.209 409.961 184.283 397.885 205.563 388.283C216.213 383.517 226.863 379.072 237.705 374.978Z" fill="white"/>
<path d="M446.397 948.869C434.435 959.487 442.303 943.432 430.405 905.533C418.508 867.634 355.215 863.252 347.251 819.852C339.288 776.452 344.693 741.208 307.369 719.971C270.046 698.735 225.559 667.776 204.066 636.402C236.433 693.97 290.259 726.208 314.373 749.491C326.655 767.785 314.374 807.059 339.959 844.671C362.891 878.7 394.329 888.294 413.519 906.94C423.657 916.791 431.365 932.75 432.452 943.08C433.859 957.12 441.279 958.016 446.397 948.869Z" fill="#37474F"/>
<path d="M538.409 790.556C571.798 781.569 593.706 767.785 610.401 747.252C622.011 733.02 625.817 728.575 603.493 722.626C603.493 722.626 614.175 725.089 610.241 733.372C601.734 751.314 576.788 768.872 551.841 777.572C517.428 789.565 490.563 790.013 465.105 783.68C439.647 777.348 423.912 783.68 423.912 783.68C476.075 799.863 510.904 797.976 538.409 790.556Z" fill="#37474F"/>
<path d="M558.773 163.479C556.247 161.464 535.838 159.077 528.994 166.177C522.15 173.277 523.017 196.197 525.288 198.755C527.559 201.314 551.513 198.907 558.773 191.103C566.033 183.3 561.3 165.462 558.773 163.479Z" fill="#263238"/>
<path d="M538.185 178.575C538.863 178.551 539.524 178.353 540.103 177.999C542.547 176.701 545.12 175.661 547.779 174.897C549.545 174.561 551.249 173.957 552.832 173.106C553.53 172.659 554.155 172.109 554.687 171.474C554.93 171.11 555.075 170.689 555.109 170.252C555.143 169.815 555.064 169.377 554.879 168.98C554.551 168.43 554.081 167.98 553.518 167.676C552.955 167.372 552.32 167.226 551.681 167.253C550.755 167.301 549.835 167.429 548.931 167.637C547.133 168.123 545.418 168.878 543.845 169.875C541.534 171.397 539.519 173.326 537.897 175.568C537.353 176.336 536.841 177.455 537.481 178.127C537.657 178.352 537.906 178.51 538.185 178.575Z" fill="#E0E0E0"/>
<path d="M536.036 178.766C536.164 178.835 536.274 178.934 536.355 179.054C536.501 179.205 536.611 179.387 536.678 179.586C536.744 179.786 536.765 179.997 536.739 180.206C536.654 180.574 536.478 180.914 536.227 181.197C535.601 182.322 534.59 183.185 533.381 183.628C533.24 183.691 533.088 183.724 532.933 183.724C532.779 183.724 532.626 183.691 532.485 183.628C532.277 183.437 532.151 183.174 532.134 182.892C532.084 182.22 532.208 181.546 532.494 180.936C532.779 180.326 533.217 179.799 533.765 179.406C534.112 179.141 534.501 178.936 534.916 178.798C535.274 178.659 535.67 178.647 536.036 178.766Z" fill="#E0E0E0"/>
<path opacity="0.5" d="M843.761 10.1877C864.901 8.04487 885.786 14.985 905.903 21.7973C916.631 25.2244 927.069 29.5023 937.117 34.5902C925.613 23.1171 911.501 14.6015 895.988 9.77191C837.46 -9.73731 721.972 -2.47732 587.135 53.9395C608.851 45.88 628.424 40.5709 651.835 34.1744C673.365 28.6466 695.353 25.0819 717.527 23.5243C744.456 21.5094 771.897 26.4987 798.378 21.2536C813.666 18.1833 828.25 11.7868 843.761 10.1877Z" fill="#00D1FF"/>
<path opacity="0.5" d="M589.349 71.9775C580.234 75.7194 570.767 80.2609 564.563 88.1285C556.311 101.785 575.501 96.4119 581.801 93.1817C587.558 91.7105 605.692 78.5658 601.822 71.6256C599.775 68.0756 593.635 70.1864 589.349 71.9775ZM623.442 63.3422C619.988 58.9606 599.04 68.6833 609.786 70.6662C612.44 71.1459 620.308 69.9946 623.282 66.0607C623.986 65.0053 624.21 64.1418 623.346 63.3422H623.442Z" fill="#00D1FF"/>
<path opacity="0.2" d="M677.278 83.3311C656.522 95.4204 636.629 110.068 624.188 130.601C617.791 140.643 612.834 151.613 607.141 162.327C601.61 173.14 595.393 183.588 588.527 193.606C581.517 203.669 573.007 212.6 563.293 220.088C553.62 227.458 543.374 234.046 532.654 239.789C511.385 251.253 489.287 261.11 466.547 269.276C488.615 259.652 510.149 248.848 531.055 236.91C551.716 224.853 571.865 211.324 585.073 191.144C591.94 181.335 598.178 171.101 603.751 160.504C609.125 149.655 615.05 139.087 621.501 128.842C628.274 118.673 636.669 109.684 646.352 102.233C656.08 95.0275 666.429 88.702 677.278 83.3311Z" fill="white"/>
<path opacity="0.5" d="M585.738 718.181C554.843 708.298 531.88 680.505 478.853 699.951C422.276 720.739 358.152 750.227 333.429 707.978C331.184 701.637 329.996 694.971 329.911 688.245C328.76 693.554 327.63 698.885 326.521 704.236C325.418 708.123 325.146 712.199 325.722 716.198C327.033 722.018 331.83 726.336 336.436 730.142C344.303 736.538 352.875 742.935 362.917 744.662C375.518 746.677 388.503 740.92 401.008 743.542C409.323 745.302 416.551 750.611 424.899 752.21C436.221 754.417 447.766 749.395 457.361 742.999C469.802 734.651 480.42 723.809 492.861 715.462C505.302 707.115 520.622 701.294 535.174 704.78C542.786 706.603 549.534 710.793 556.698 713.959C565.726 718.278 575.854 719.751 585.738 718.181Z" fill="#00D1FF"/>
<path opacity="0.5" d="M538.175 712.679C528.996 709.481 513.164 712.679 504.561 720.675C504.063 721.184 503.708 721.817 503.534 722.508C503.36 723.199 503.372 723.924 503.57 724.609C506.352 730.142 513.164 726.08 517.898 725.632C525.19 724.961 532.386 729.662 539.614 728.319C549.944 726.24 547.322 716.069 538.175 712.679ZM557.748 720.035C555.733 718.468 551.351 715.206 549.976 719.012C548.089 727.359 566.383 729.086 557.716 720.035H557.748Z" fill="#00D1FF"/>
<path opacity="0.5" d="M487.355 697.2C484.604 697.999 481.79 698.863 478.847 699.95C443.923 712.743 406.184 728.734 376.504 729.406C378.24 729.502 379.981 729.502 381.717 729.406C391.312 728.798 400.906 726.208 410.501 727.935C417.953 729.246 424.893 733.148 432.473 733.468C440.993 733.304 449.164 730.054 455.468 724.321C462.025 718.98 467.462 712.423 473.794 706.858C477.967 703.177 482.511 699.94 487.355 697.2Z" fill="#00D1FF"/>
<path opacity="0.5" d="M610.363 747.38C623.635 731.133 626.706 727.615 592.293 720.131C557.88 712.647 535.556 679.322 478.851 700.11C422.147 720.899 358.15 750.386 333.428 708.138C336.688 714.328 341.377 719.652 347.106 723.668C352.835 727.684 359.439 730.276 366.37 731.229C380.246 732.577 394.25 731.495 407.755 728.031C434.684 721.986 460.046 710.92 485.376 702.445C497.684 698.15 510.802 696.686 523.755 698.159C530.199 699.055 536.527 700.653 542.624 702.925C548.765 705.323 554.841 708.106 561.014 710.952C567.187 713.799 573.455 716.741 580.012 719.108C586.582 721.26 593.307 722.907 600.128 724.033C603.327 724.705 606.717 725.408 609.883 726.368C612.939 726.988 615.756 728.463 618.007 730.621C619.67 732.764 618.007 736.25 616.184 738.969C614.361 741.687 612.346 744.47 610.363 747.38Z" fill="white"/>
<path opacity="0.7" d="M895.969 9.83573C813.103 -17.765 616.251 8.10868 411.724 151.485C361.48 186.666 321.342 220.919 289.424 255.14C312.844 232.386 337.737 211.2 363.943 191.719C376.949 181.826 390.2 172.231 403.697 162.935C417.097 153.532 431.138 145.121 444.826 136.23C500.014 101.396 558.61 72.2804 619.705 49.3339C634.833 43.2253 650.408 38.5239 665.856 33.3428C673.596 30.9121 681.495 28.9612 689.299 26.7224L701.068 23.5242L712.934 20.8057C728.701 16.8079 744.724 14.0574 760.715 11.211L784.862 8.20464C792.89 7.14922 800.853 6.86137 809.073 6.12578C841.247 4.43072 874.445 5.5501 904.348 16.9358C919.426 22.4398 932.748 31.8952 942.919 44.3127C952.81 57.2936 959.653 72.3346 962.94 88.3204C956.447 51.061 936.522 23.3643 895.969 9.83573Z" fill="white"/>
</svg>
