<svg width="20" height="20" viewBox="0 0 20 20" fill="none" xmlns="http://www.w3.org/2000/svg">
<g clip-path="url(#clip0_763_200)">
<path d="M4.10841 4.10835L7.64175 7.64169M12.3584 12.3584L15.8917 15.8917M15.8917 4.10835L12.3584 7.64169L15.3001 4.70002M4.10841 15.8917L7.64175 12.3584M18.3334 10C18.3334 14.6024 14.6025 18.3334 10.0001 18.3334C5.39771 18.3334 1.66675 14.6024 1.66675 10C1.66675 5.39765 5.39771 1.66669 10.0001 1.66669C14.6025 1.66669 18.3334 5.39765 18.3334 10ZM13.3334 10C13.3334 11.841 11.841 13.3334 10.0001 13.3334C8.15913 13.3334 6.66675 11.841 6.66675 10C6.66675 8.15907 8.15913 6.66669 10.0001 6.66669C11.841 6.66669 13.3334 8.15907 13.3334 10Z" stroke="#B0C9FF" stroke-width="2" stroke-linecap="round" stroke-linejoin="round"/>
</g>
<defs>
<clipPath id="clip0_763_200">
<rect width="20" height="20" fill="white"/>
</clipPath>
</defs>
</svg>
